<?xml version="1.0" encoding="utf-8"?>
<!-- Generator: Adobe Illustrator 27.9.4, SVG Export Plug-In . SVG Version: 9.03 Build 54784)  -->
<svg version="1.1" id="Camada_1" xmlns="http://www.w3.org/2000/svg" xmlns:xlink="http://www.w3.org/1999/xlink" x="0px" y="0px"
	 viewBox="0 0 762.3 415.4" style="enable-background:new 0 0 762.3 415.4;" xml:space="preserve">
<style type="text/css">
	.st0{fill:#0E60F1;}
	.st1{fill:#88B9FF;}
</style>
<g>
	<g>
		<path class="st0" d="M667.7,173.4H94.6c-41.8,0-75.7-33.9-75.7-75.7v0c0-41.8,33.9-75.7,75.7-75.7l573.1,0
			c41.8,0,75.7,33.9,75.7,75.7v0C743.5,139.5,709.6,173.4,667.7,173.4z"/>
		<path class="st1" d="M332.2,166.5H98c-38,0-68.8-30.8-68.8-68.8v0c0-38,30.8-68.8,68.8-68.8h234.2c38,0,68.8,30.8,68.8,68.8v0
			C401,135.7,370.2,166.5,332.2,166.5z"/>
		<g>
			<g>
				<g>
					<path class="st0" d="M233.8,116l-5.2-5.2l-12.8-13l-3-3.1l0,0l-0.2-0.2l0,0l0,0l-3.1,3.1l-33.9,33.8l-4,4l0,1.2v0l0.1,0.3
						c0,0,0,0,0,0l0.1,0.4c0.3,1,0.7,2,1.2,2.8c1.1,1.8,2.6,3.3,4.5,4.4c1.9,1.1,4.1,1.7,6.3,1.7c1.1,0,2.2-0.1,3.2-0.4
						c1.1-0.3,2.2-0.7,3.1-1.3l42.1-24l3.8-2.1L233.8,116z M188.1,140.8l-0.2,0.1c-0.6,0.4-1.3,0.6-2,0.8c-2.1,0.6-4.3,0.3-6.2-0.8
						c-1.5-0.9-2.7-2.3-3.4-3.9c0,0,0,0,0,0l36.3-36.2l0,0l0.2,0.2l14.6,14.8l1.7,1.7L188.1,140.8z"/>
				</g>
				<g>
					<path class="st0" d="M257.5,92.2c-1.1-2-2.7-3.7-4.7-4.9l-16.5-9.7l-3.7-2.2l-0.1-0.1l-3.2,3.2l-16.5,16.3l0,0h0l-3.1,3
						l2.9,2.9l0.2,0.2l14.6,14.8l1.7,1.7l3.2,3.2l0,0l20.1-11.4C258.4,105.9,260.7,98.3,257.5,92.2z M250.3,105.4l-17.3,9.8
						l-4.4-4.4l-12.8-13l0,0l17.3-17.1l16.9,10l0.1,0.1l0.3,0.2c1.4,0.8,2.5,1.9,3.3,3.3C255.8,98.3,254.3,103.3,250.3,105.4z"/>
				</g>
				<g>
					<path class="st0" d="M212.8,94.8L212.8,94.8L212.8,94.8l-0.2-0.2l-35.9-36.3v0l-0.3-0.3l-3-2.9c-0.5,0.9-1,1.9-1.3,2.9
						l-0.1,0.3c-0.1,0.4-0.2,0.8-0.3,1.2c-0.1,0.7-0.2,1.3-0.2,2l-0.4,72.1c0,1.1,0.1,2,0.3,3c0,0.1,0,0.2,0.1,0.3c0,0,0,0,0,0
						l0.1,0.4l0.9,3.2l0.3-0.3l3.2-3.2l36.5-36.1l0,0l3.1-3L212.8,94.8z M175.6,131.5l0.4-67.7l33.5,33.9l0.2,0.2L175.6,131.5
						L175.6,131.5z"/>
				</g>
				<g>
					<path class="st0" d="M232.6,75.4l-0.1-0.1l-41.7-24.5c-2.9-1.7-6.3-2.3-9.5-1.4c-3.3,0.8-6,2.8-7.8,5.7c0,0,0,0,0,0
						c-0.5,0.9-1,1.9-1.3,2.9c0,0.1,0,0.1-0.1,0.2l-0.3,1.2l0.1,0.1l4.1,4.2l33.5,33.9l0.2,0.2l2.9,2.9l0.2,0.2l0,0l3.1-3l0,0
						l20.5-20.2l0,0L232.6,75.4z M212.8,94.8L212.8,94.8L212.8,94.8L212.8,94.8l-0.2-0.2l-35.9-36.3v0c0.1-0.3,0.3-0.6,0.5-0.9
						c1.1-1.9,3-3.2,5.1-3.7c2.1-0.5,4.4-0.2,6.3,1l40.7,23.9L212.8,94.8z"/>
				</g>
			</g>
		</g>
		<g>
			<path class="st1" d="M441.3,62.8c0,2.8-0.8,5-2.5,6.6c-1.9,2-4.3,2.9-7.3,2.9c-2.9,0-5.3-1-7.3-3c-2-2-3-4.5-3-7.4s1-5.4,3-7.4
				s4.4-3,7.3-3c1.5,0,2.8,0.3,4.1,0.8c1.3,0.5,2.3,1.3,3.2,2.2l-1.8,1.8c-0.6-0.7-1.4-1.3-2.4-1.7c-1-0.4-2-0.6-3.1-0.6
				c-2.2,0-4,0.8-5.5,2.2c-1.5,1.5-2.2,3.4-2.2,5.7c0,2.3,0.7,4.2,2.2,5.7c1.5,1.5,3.3,2.2,5.5,2.2c2,0,3.6-0.6,4.9-1.7
				c1.3-1.1,2.1-2.6,2.3-4.6h-7.2v-2.4h9.6C441.2,61.8,441.3,62.3,441.3,62.8z M456.5,52.1v2.4h-9v6.3h8.1v2.4h-8.1v6.3h9v2.4H445
				V52.1H456.5z M467.3,54.5v17.4h-2.5V54.5h-5.6v-2.4h13.6v2.4H467.3z M485.3,71.9h-2.5V52.1h2.5V71.9z M496.6,54.5v17.4H494V54.5
				h-5.6v-2.4h13.6v2.4H496.6z M530.8,62c0,2.9-1,5.4-2.9,7.4c-2,2-4.4,3-7.3,3c-2.9,0-5.3-1-7.3-3c-2-2-2.9-4.4-2.9-7.4
				c0-2.9,1-5.4,2.9-7.4c2-2,4.4-3,7.3-3c2.9,0,5.3,1,7.3,3S530.8,59.1,530.8,62z M513,62c0,2.3,0.7,4.2,2.2,5.7
				c1.5,1.5,3.3,2.2,5.4,2.2c2.2,0,4-0.8,5.4-2.2c1.5-1.5,2.2-3.4,2.2-5.7c0-2.3-0.7-4.2-2.2-5.7c-1.5-1.5-3.2-2.2-5.4-2.2
				c-2.2,0-4,0.8-5.4,2.2C513.8,57.8,513,59.7,513,62z M537,71.9h-2.5V52.1h3.1l9.7,15.5h0.1l-0.1-3.8V52.1h2.5v19.9h-2.6L537,55.7
				h-0.1l0.1,3.8L537,71.9L537,71.9z"/>
			<path class="st1" d="M509.8,100.9c-7.8,0-14.1,5.9-14.1,14.1c0,8.1,6.4,14.1,14.1,14.1c7.8,0,14.1-6,14.1-14.1
				C524,106.8,517.6,100.9,509.8,100.9z M509.8,123.5c-4.3,0-7.9-3.5-7.9-8.5c0-5.1,3.7-8.5,7.9-8.5s7.9,3.5,7.9,8.5
				C517.8,120,514.1,123.5,509.8,123.5z M479,100.9c-7.8,0-14.1,5.9-14.1,14.1c0,8.1,6.4,14.1,14.1,14.1s14.1-6,14.1-14.1
				C493.1,106.8,486.8,100.9,479,100.9L479,100.9z M479,123.5c-4.3,0-7.9-3.5-7.9-8.5c0-5.1,3.7-8.5,7.9-8.5c4.3,0,7.9,3.5,7.9,8.5
				C486.9,120,483.3,123.5,479,123.5z M442.3,105.2v6h14.3c-0.4,3.3-1.6,5.8-3.2,7.5c-2.1,2.1-5.3,4.4-11,4.4
				c-8.8,0-15.7-7.1-15.7-15.9s6.9-15.9,15.7-15.9c4.7,0,8.2,1.9,10.8,4.3l4.2-4.2c-3.6-3.4-8.3-6-15-6c-12,0-22.2,9.8-22.2,21.9
				c0,12,10.1,21.9,22.2,21.9c6.5,0,11.4-2.1,15.3-6.1c3.9-3.9,5.2-9.5,5.2-14c0-1.4-0.1-2.7-0.3-3.7L442.3,105.2L442.3,105.2z
				 M592.3,109.8c-1.2-3.1-4.7-9-12-9c-7.2,0-13.3,5.7-13.3,14.1c0,7.9,6,14.1,14,14.1c6.5,0,10.2-3.9,11.7-6.2l-4.8-3.2
				c-1.6,2.3-3.8,3.9-6.9,3.9s-5.4-1.4-6.8-4.3l18.8-7.8L592.3,109.8z M573.1,114.5c-0.2-5.4,4.2-8.2,7.3-8.2c2.4,0,4.5,1.2,5.2,3
				L573.1,114.5z M557.8,128.2h6.2V86.8h-6.2V128.2z M547.7,104h-0.2c-1.4-1.7-4-3.1-7.4-3.1c-7,0-13.5,6.2-13.5,14.1
				c0,7.9,6.5,14,13.5,14c3.3,0,6-1.5,7.4-3.2h0.2v2c0,5.4-2.9,8.3-7.5,8.3c-3.8,0-6.1-2.7-7.1-5l-5.4,2.2c1.6,3.7,5.7,8.3,12.5,8.3
				c7.2,0,13.4-4.3,13.4-14.7v-25.3h-5.9L547.7,104L547.7,104z M540.5,123.5c-4.3,0-7.8-3.6-7.8-8.5c0-5,3.6-8.6,7.8-8.6
				c4.2,0,7.5,3.6,7.5,8.6C548.1,119.9,544.8,123.5,540.5,123.5z M621.2,86.8h-14.8v41.4h6.2v-15.7h8.6c6.8,0,13.6-5,13.6-12.8
				C634.8,91.8,628.1,86.8,621.2,86.8L621.2,86.8z M621.4,106.7h-8.8V92.5h8.8c4.6,0,7.2,3.8,7.2,7.1
				C628.6,102.9,626,106.7,621.4,106.7z M659.5,100.8c-4.5,0-9.1,2-11,6.3l5.5,2.3c1.2-2.3,3.3-3,5.6-3c3.2,0,6.5,1.9,6.5,5.3v0.4
				c-1.1-0.6-3.5-1.6-6.5-1.6c-5.9,0-11.9,3.2-11.9,9.3c0,5.5,4.8,9.1,10.3,9.1c4.1,0,6.5-1.9,7.9-4h0.2v3.2h6v-15.8
				C672.1,104.9,666.6,100.8,659.5,100.8z M658.8,123.5c-2,0-4.8-1-4.8-3.5c0-3.2,3.5-4.4,6.6-4.4c2.7,0,4,0.6,5.6,1.4
				C665.7,120.7,662.5,123.4,658.8,123.5L658.8,123.5z M693.8,101.7l-7.1,17.9h-0.2l-7.3-17.9h-6.6l11,25.1l-6.3,13.9h6.5l17-39
				H693.8z M638.2,128.2h6.2V86.8h-6.2V128.2z"/>
		</g>
	</g>
	<g>
		<path class="st0" d="M667.7,399.7H94.6c-41.8,0-75.7-33.9-75.7-75.7v0c0-41.8,33.9-75.7,75.7-75.7h573.1
			c41.8,0,75.7,33.9,75.7,75.7v0C743.5,365.8,709.6,399.7,667.7,399.7z"/>
		<path class="st1" d="M332.2,392.7H98c-38,0-68.8-30.8-68.8-68.8v0c0-38,30.8-68.8,68.8-68.8h234.2c38,0,68.8,30.8,68.8,68.8v0
			C401,361.9,370.2,392.7,332.2,392.7z"/>
		<g>
			<g>
				<g>
					<path class="st1" d="M457.3,363.8h-7.8l-4.2-13.3h-14.8l-4,13.3h-7.5l14.6-45.4h9L457.3,363.8L457.3,363.8z M444,344.9
						l-3.8-11.9c-0.4-1.2-1.2-4.1-2.3-8.6h-0.1c-0.5,1.9-1.2,4.8-2.2,8.6l-3.8,11.9H444z M494.8,347c0,5.6-1.5,10-4.5,13.2
						c-2.7,2.9-6.1,4.3-10.1,4.3c-4.3,0-7.5-1.5-9.4-4.6v17.2h-7.3v-35.3c0-3.5-0.1-7.1-0.3-10.8h6.4l0.4,5.2h0.1
						c2.4-3.9,6.1-5.9,11.1-5.9c3.9,0,7.1,1.5,9.7,4.6C493.5,338,494.8,342.1,494.8,347L494.8,347z M487.4,347.3
						c0-3.2-0.7-5.8-2.2-7.9c-1.6-2.2-3.7-3.2-6.3-3.2c-1.8,0-3.4,0.6-4.9,1.8c-1.5,1.2-2.4,2.8-2.9,4.7c-0.2,0.7-0.3,1.5-0.3,2.2
						v5.5c0,2.4,0.7,4.4,2.2,6c1.5,1.6,3.4,2.5,5.7,2.5c2.7,0,4.9-1.1,6.4-3.2C486.6,353.6,487.4,350.8,487.4,347.3z M532.5,347
						c0,5.6-1.5,10-4.5,13.2c-2.7,2.9-6.1,4.3-10.1,4.3c-4.3,0-7.5-1.5-9.4-4.6v17.2h-7.3v-35.3c0-3.5-0.1-7.1-0.3-10.8h6.4l0.4,5.2
						h0.1c2.4-3.9,6.1-5.9,11.1-5.9c3.9,0,7.1,1.5,9.7,4.6C531.2,338,532.5,342.1,532.5,347L532.5,347z M525.1,347.3
						c0-3.2-0.7-5.8-2.2-7.9c-1.6-2.2-3.7-3.2-6.3-3.2c-1.8,0-3.4,0.6-4.9,1.8c-1.5,1.2-2.4,2.8-2.9,4.7c-0.2,0.9-0.3,1.6-0.3,2.2
						v5.5c0,2.4,0.7,4.4,2.2,6c1.5,1.6,3.4,2.5,5.7,2.5c2.7,0,4.9-1.1,6.4-3.2C524.3,353.6,525.1,350.8,525.1,347.3z M574.6,351.1
						c0,3.9-1.4,7-4,9.4c-3,2.6-7.1,4-12.4,4c-4.9,0-8.8-0.9-11.8-2.8l1.7-6.1c3.2,1.9,6.7,2.8,10.5,2.8c2.7,0,4.9-0.6,6.4-1.9
						c1.5-1.2,2.3-2.9,2.3-4.9c0-1.8-0.6-3.4-1.9-4.7c-1.3-1.3-3.3-2.4-6.3-3.5c-8-3-11.9-7.3-11.9-13c0-3.7,1.4-6.8,4.2-9.2
						c2.8-2.4,6.5-3.6,11.2-3.6c4.1,0,7.6,0.7,10.3,2.2l-1.8,5.9c-2.6-1.4-5.5-2.1-8.7-2.1c-2.6,0-4.6,0.6-6,1.9
						c-1.2,1.1-1.8,2.5-1.8,4.1c0,1.8,0.7,3.3,2.1,4.4c1.2,1.1,3.4,2.2,6.6,3.5c3.9,1.6,6.8,3.4,8.6,5.5
						C573.7,345.3,574.6,347.9,574.6,351.1L574.6,351.1z M598.7,336.5h-8v15.9c0,4,1.4,6.1,4.2,6.1c1.3,0,2.4-0.1,3.2-0.3l0.2,5.5
						c-1.4,0.5-3.3,0.8-5.7,0.8c-2.9,0-5.1-0.9-6.7-2.6c-1.6-1.8-2.4-4.7-2.4-8.8v-16.5h-4.8v-5.5h4.8v-6l7.1-2.2v8.2h8L598.7,336.5
						L598.7,336.5z M634.9,347.2c0,5-1.4,9.2-4.3,12.4c-3,3.3-7,5-12,5c-4.8,0-8.6-1.6-11.5-4.8c-2.9-3.2-4.3-7.2-4.3-12.1
						c0-5.1,1.5-9.2,4.4-12.5c2.9-3.2,6.9-4.9,11.9-4.9c4.8,0,8.7,1.6,11.6,4.8C633.5,338.3,634.9,342.3,634.9,347.2L634.9,347.2z
						 M627.3,347.3c0-3-0.6-5.6-1.9-7.7c-1.5-2.6-3.7-3.9-6.5-3.9c-2.9,0-5.2,1.3-6.7,3.9c-1.3,2.2-2,4.8-2,7.9c0,3,0.6,5.6,2,7.7
						c1.6,2.6,3.8,3.9,6.6,3.9c2.8,0,5-1.3,6.5-4C626.6,352.9,627.3,350.4,627.3,347.3L627.3,347.3z M658.5,337.5
						c-0.8-0.1-1.5-0.2-2.3-0.2c-2.6,0-4.5,1-5.9,2.9c-1.2,1.7-1.8,3.9-1.8,6.5v17.2h-7.3v-22.4c0-3.4-0.1-6.9-0.2-10.3h6.3l0.3,6.3
						h0.2c0.8-2.2,2-3.9,3.6-5.2c1.5-1.1,3.4-1.8,5.3-1.8c0.7,0,1.3,0,1.8,0.1L658.5,337.5L658.5,337.5z M691.1,345.9
						c0,1.1-0.1,2.2-0.3,3.3H669c0.1,3.2,1.1,5.7,3.2,7.4c1.8,1.5,4.2,2.3,7.1,2.3c3.2,0,6.2-0.5,8.8-1.5l1.1,5c-3.1,1.4-6.8,2-11,2
						c-5.1,0-9.1-1.5-12-4.5c-2.9-3-4.3-7-4.3-12c0-4.9,1.3-9,4-12.3c2.8-3.5,6.6-5.3,11.5-5.3c4.7,0,8.3,1.8,10.7,5.3
						C690.1,338.4,691.1,341.8,691.1,345.9L691.1,345.9z M684.1,344c0.1-2.2-0.4-4-1.4-5.6c-1.3-2-3.2-3-5.8-3c-2.4,0-4.3,1-5.8,3
						c-1.2,1.6-1.9,3.5-2.2,5.7L684.1,344L684.1,344z"/>
				</g>
				<g>
					<path class="st1" d="M428.4,302.4c-2,0-3.8-0.1-5.2-0.3v-22c2-0.3,4.1-0.5,6.2-0.5c8.3,0,12.2,4.1,12.2,10.8
						C441.5,298.2,437,302.4,428.4,302.4z M429.6,282.5c-1.1,0-2.1,0.1-2.9,0.2v16.7c0.4,0.1,1.3,0.1,2.4,0.1c5.5,0,8.6-3.1,8.6-8.9
						C437.8,285.4,434.9,282.5,429.6,282.5z M453.5,302.5c-4.7,0-7.8-3.5-7.8-8.3c0-5,3.1-8.5,8-8.5c4.6,0,7.8,3.3,7.8,8.2
						C461.5,299,458.3,302.5,453.5,302.5z M453.7,288.3c-2.6,0-4.2,2.4-4.2,5.8c0,3.3,1.7,5.7,4.2,5.7s4.2-2.6,4.2-5.8
						C457.8,290.8,456.2,288.3,453.7,288.3L453.7,288.3z M488.4,286.1l-5,16.1H480l-2.1-7c-0.5-1.7-1-3.4-1.3-5.2h-0.1
						c-0.3,1.8-0.8,3.5-1.3,5.2l-2.2,7h-3.3l-4.7-16.1h3.7l1.8,7.7c0.4,1.8,0.8,3.5,1.1,5.2h0.1c0.3-1.4,0.7-3,1.3-5.1l2.3-7.7h2.9
						l2.2,7.5c0.5,1.8,1,3.6,1.3,5.3h0.1c0.2-1.7,0.6-3.4,1.1-5.3l2-7.5L488.4,286.1L488.4,286.1z M506.9,302.2h-3.6v-9.2
						c0-2.8-1.1-4.3-3.2-4.3c-2.1,0-3.6,1.8-3.6,3.9v9.6h-3.6v-11.5c0-1.4,0-2.9-0.1-4.6h3.1l0.2,2.5h0.1c1-1.7,2.9-2.8,5.1-2.8
						c3.4,0,5.6,2.6,5.6,6.8L506.9,302.2L506.9,302.2z M516.8,302.2h-3.6v-23.5h3.6V302.2z M529.8,302.5c-4.7,0-7.8-3.5-7.8-8.3
						c0-5,3.1-8.5,8-8.5c4.6,0,7.8,3.3,7.8,8.2C537.8,299,534.6,302.5,529.8,302.5z M529.9,288.3c-2.6,0-4.2,2.4-4.2,5.8
						c0,3.3,1.7,5.7,4.2,5.7c2.5,0,4.2-2.6,4.2-5.8C534.1,290.8,532.5,288.3,529.9,288.3L529.9,288.3z M551.9,302.2l-0.3-1.9h-0.1
						c-1.1,1.5-2.7,2.2-4.7,2.2c-2.9,0-4.9-2-4.9-4.7c0-4,3.4-6,9.4-6v-0.3c0-2.1-1.1-3.2-3.3-3.2c-1.6,0-3,0.4-4.2,1.2l-0.7-2.4
						c1.5-0.9,3.3-1.4,5.5-1.4c4.2,0,6.3,2.2,6.3,6.7v5.9c0,1.6,0.1,2.9,0.2,3.8L551.9,302.2L551.9,302.2z M551.4,294.1
						c-4,0-6,1-6,3.2c0,1.7,1,2.5,2.5,2.5c1.8,0,3.5-1.4,3.5-3.3V294.1z M572.3,302.2l-0.2-2.6H572c-1,2-2.8,2.9-5.2,2.9
						c-3.9,0-6.8-3.4-6.8-8.2c0-5,3-8.6,7-8.6c2.2,0,3.7,0.7,4.5,2.2h0.1v-9.2h3.6v19.1c0,1.6,0,3,0.1,4.3H572.3L572.3,302.2z
						 M571.8,292.7c0-2.3-1.5-4.2-3.8-4.2c-2.7,0-4.3,2.4-4.3,5.7c0,3.2,1.7,5.5,4.2,5.5c2.2,0,3.8-2,3.8-4.3V292.7L571.8,292.7z
						 M598,302.5c-4.7,0-7.7-3.5-7.7-8.3c0-5,3.1-8.5,8-8.5c4.6,0,7.8,3.3,7.8,8.2C606.1,299,602.9,302.5,598,302.5L598,302.5z
						 M598.2,288.3c-2.6,0-4.2,2.4-4.2,5.8c0,3.3,1.7,5.7,4.2,5.7c2.5,0,4.2-2.6,4.2-5.8C602.4,290.8,600.7,288.3,598.2,288.3
						L598.2,288.3z M625.3,302.2h-3.6v-9.2c0-2.8-1.1-4.3-3.2-4.3c-2.1,0-3.6,1.8-3.6,3.9v9.6h-3.6v-11.5c0-1.4,0-2.9-0.1-4.6h3.1
						l0.2,2.5h0.1c1-1.7,2.9-2.8,5.1-2.8c3.4,0,5.6,2.6,5.6,6.8V302.2z M649.4,288.7h-3.9v7.8c0,2,0.7,3,2.1,3
						c0.6,0,1.2-0.1,1.6-0.2l0.1,2.7c-0.7,0.3-1.6,0.4-2.8,0.4c-2.8,0-4.5-1.6-4.5-5.6v-8.1h-2.3v-2.7h2.3v-2.9l3.5-1.1v4h3.9V288.7
						L649.4,288.7z M668.3,302.2h-3.6V293c0-2.9-1.1-4.3-3.2-4.3c-1.9,0-3.6,1.3-3.6,3.8v9.7h-3.6v-23.5h3.6v9.7h0.1
						c1.1-1.8,2.8-2.6,4.8-2.6c3.4,0,5.5,2.6,5.5,6.9V302.2L668.3,302.2z M687.7,295H677c0.1,3,2.1,4.8,5.1,4.8c1.6,0,3-0.3,4.3-0.8
						l0.6,2.5c-1.5,0.7-3.3,1-5.4,1c-5,0-8-3.2-8-8.1c0-4.9,3.1-8.6,7.6-8.6c4.1,0,6.7,3,6.7,7.7C687.9,293.9,687.8,294.4,687.7,295
						L687.7,295z M684.4,292.4c0-2.5-1.3-4.2-3.5-4.2c-2.1,0-3.7,1.8-3.9,4.2H684.4L684.4,292.4z"/>
				</g>
			</g>
		</g>
		<path class="st0" d="M243.7,324.1c-0.1-13.3,10.9-19.7,11.4-20c-6.2-9.1-15.9-10.3-19.2-10.4c-8.1-0.9-15.9,4.8-20.1,4.8
			c-4.2,0-10.6-4.8-17.4-4.6c-8.8,0.1-17,5.2-21.6,13.1c-9.3,16.1-2.4,39.9,6.6,52.9c4.5,6.4,9.7,13.5,16.5,13.3
			c6.7-0.3,9.2-4.3,17.3-4.3c8,0,10.3,4.3,17.3,4.1c7.2-0.1,11.7-6.4,16-12.9c5.2-7.3,7.2-14.5,7.3-14.9
			C257.6,345.3,243.9,340,243.7,324.1L243.7,324.1z M230.6,285.2c3.6-4.5,6.1-10.6,5.4-16.8c-5.2,0.2-11.7,3.6-15.5,8
			c-3.3,3.9-6.3,10.2-5.5,16.2C220.8,293,226.8,289.6,230.6,285.2z"/>
	</g>
</g>
</svg>
