<?xml version="1.0" encoding="utf-8"?>
<svg version="1.1" xmlns="http://www.w3.org/2000/svg" xmlns:xlink="http://www.w3.org/1999/xlink">
      <svg id="app-store" enable-background="new 0 0 135 40" viewBox="0 0 135 40"><path d="m130.197 40h-125.468c-2.607 0-4.729-2.128-4.729-4.733v-30.541c0-2.606 2.122-4.726 4.729-4.726h125.468c2.606 0 4.803 2.12 4.803 4.726v30.541c0 2.605-2.197 4.733-4.803 4.733z" fill="#a6a6a6"/><path d="m134.032 35.268c0 2.116-1.714 3.83-3.834 3.83h-125.469c-2.119 0-3.839-1.714-3.839-3.83v-30.543c0-2.115 1.72-3.835 3.839-3.835h125.468c2.121 0 3.834 1.72 3.834 3.835z"/><g fill="#fff"><path d="m30.128 19.784c-.029-3.223 2.639-4.791 2.761-4.864-1.511-2.203-3.853-2.504-4.676-2.528-1.967-.207-3.875 1.177-4.877 1.177-1.022 0-2.565-1.157-4.228-1.123-2.14.033-4.142 1.272-5.24 3.196-2.266 3.923-.576 9.688 1.595 12.859 1.086 1.553 2.355 3.287 4.016 3.226 1.625-.067 2.232-1.036 4.193-1.036 1.943 0 2.513 1.036 4.207.997 1.744-.028 2.842-1.56 3.89-3.127 1.255-1.78 1.759-3.533 1.779-3.623-.041-.014-3.387-1.291-3.42-5.154z"/><path d="m26.928 10.306c.874-1.093 1.472-2.58 1.306-4.089-1.265.056-2.847.875-3.758 1.944-.806.942-1.526 2.486-1.34 3.938 1.421.106 2.88-.717 3.792-1.793z"/><path d="m53.645 31.504h-2.271l-1.244-3.909h-4.324l-1.185 3.909h-2.211l4.284-13.308h2.646zm-3.89-5.549-1.125-3.475c-.119-.355-.342-1.191-.671-2.507h-.04c-.131.566-.342 1.402-.632 2.507l-1.105 3.475z"/><path d="m64.662 26.588c0 1.632-.441 2.922-1.323 3.869-.79.843-1.771 1.264-2.942 1.264-1.264 0-2.172-.454-2.725-1.362h-.04v5.055h-2.132v-10.347c0-1.026-.027-2.079-.079-3.159h1.875l.119 1.521h.04c.711-1.146 1.79-1.718 3.238-1.718 1.132 0 2.077.447 2.833 1.342.758.896 1.136 2.074 1.136 3.535zm-2.172.078c0-.934-.21-1.704-.632-2.31-.461-.632-1.08-.948-1.856-.948-.526 0-1.004.176-1.431.523-.428.35-.708.807-.839 1.373-.066.264-.099.48-.099.65v1.6c0 .698.214 1.287.642 1.768s.984.721 1.668.721c.803 0 1.428-.31 1.875-.928.448-.619.672-1.435.672-2.449z"/><path d="m75.699 26.588c0 1.632-.441 2.922-1.324 3.869-.789.843-1.77 1.264-2.941 1.264-1.264 0-2.172-.454-2.724-1.362h-.04v5.055h-2.132v-10.347c0-1.026-.027-2.079-.079-3.159h1.875l.119 1.521h.04c.71-1.146 1.789-1.718 3.238-1.718 1.131 0 2.076.447 2.834 1.342.755.896 1.134 2.074 1.134 3.535zm-2.172.078c0-.934-.211-1.704-.633-2.31-.461-.632-1.078-.948-1.855-.948-.527 0-1.004.176-1.432.523-.428.35-.707.807-.838 1.373-.065.264-.099.48-.099.65v1.6c0 .698.214 1.287.64 1.768.428.48.984.721 1.67.721.803 0 1.428-.31 1.875-.928.448-.619.672-1.435.672-2.449z"/><path d="m88.039 27.772c0 1.132-.393 2.053-1.182 2.764-.867.777-2.074 1.165-3.625 1.165-1.432 0-2.58-.276-3.449-.829l.494-1.777c.936.566 1.963.85 3.082.85.803 0 1.428-.182 1.877-.544.447-.362.67-.848.67-1.454 0-.54-.184-.995-.553-1.364-.367-.369-.98-.712-1.836-1.029-2.33-.869-3.494-2.142-3.494-3.816 0-1.094.408-1.991 1.225-2.689.814-.699 1.9-1.048 3.258-1.048 1.211 0 2.217.211 3.02.632l-.533 1.738c-.75-.408-1.598-.612-2.547-.612-.75 0-1.336.185-1.756.553-.355.329-.533.73-.533 1.205 0 .526.203.961.611 1.303.355.316 1 .658 1.936 1.027 1.145.461 1.986 1 2.527 1.618.539.616.808 1.387.808 2.307z"/><path d="m95.088 23.508h-2.35v4.659c0 1.185.414 1.777 1.244 1.777.381 0 .697-.033.947-.099l.059 1.619c-.42.157-.973.236-1.658.236-.842 0-1.5-.257-1.975-.77-.473-.514-.711-1.376-.711-2.587v-4.837h-1.4v-1.6h1.4v-1.757l2.094-.632v2.389h2.35z"/><path d="m105.691 26.627c0 1.475-.422 2.686-1.264 3.633-.883.975-2.055 1.461-3.516 1.461-1.408 0-2.529-.467-3.365-1.401s-1.254-2.113-1.254-3.534c0-1.487.43-2.705 1.293-3.652.861-.948 2.023-1.422 3.484-1.422 1.408 0 2.541.467 3.396 1.402.818.907 1.226 2.078 1.226 3.513zm-2.212.069c0-.885-.189-1.644-.572-2.277-.447-.766-1.086-1.148-1.914-1.148-.857 0-1.508.383-1.955 1.148-.383.634-.572 1.405-.572 2.317 0 .885.189 1.644.572 2.276.461.766 1.105 1.148 1.936 1.148.814 0 1.453-.39 1.914-1.168.393-.645.591-1.412.591-2.296z"/><path d="m112.621 23.783c-.211-.039-.436-.059-.672-.059-.75 0-1.33.283-1.738.85-.355.5-.533 1.132-.533 1.895v5.035h-2.131l.02-6.574c0-1.106-.027-2.113-.08-3.021h1.857l.078 1.836h.059c.225-.631.58-1.139 1.066-1.52.475-.343.988-.514 1.541-.514.197 0 .375.014.533.039z"/><path d="m122.156 26.252c0 .382-.025.704-.078.967h-6.396c.025.948.334 1.673.928 2.173.539.447 1.236.671 2.092.671.947 0 1.811-.151 2.588-.454l.334 1.48c-.908.396-1.98.593-3.217.593-1.488 0-2.656-.438-3.506-1.313-.848-.875-1.273-2.05-1.273-3.524 0-1.447.395-2.652 1.186-3.613.828-1.026 1.947-1.539 3.355-1.539 1.383 0 2.43.513 3.141 1.539.563.815.846 1.823.846 3.02zm-2.033-.553c.014-.632-.125-1.178-.414-1.639-.369-.593-.936-.889-1.699-.889-.697 0-1.264.289-1.697.869-.355.461-.566 1.014-.631 1.658h4.441z"/><path d="m49.05 10.009c0 1.177-.353 2.063-1.058 2.658-.653.549-1.581.824-2.783.824-.596 0-1.106-.026-1.533-.078v-6.431c.557-.09 1.157-.136 1.805-.136 1.145 0 2.008.249 2.59.747.652.563.979 1.368.979 2.416zm-1.105.029c0-.763-.202-1.348-.606-1.756-.404-.407-.994-.611-1.771-.611-.33 0-.611.022-.844.068v4.889c.129.02.365.029.708.029.802 0 1.421-.223 1.857-.669s.656-1.096.656-1.95z"/><path d="m54.909 11.037c0 .725-.207 1.319-.621 1.785-.434.479-1.009.718-1.727.718-.692 0-1.243-.229-1.654-.689-.41-.459-.615-1.038-.615-1.736 0-.73.211-1.329.635-1.794s.994-.698 1.712-.698c.692 0 1.248.229 1.669.688.4.446.601 1.022.601 1.726zm-1.087.034c0-.435-.094-.808-.281-1.119-.22-.376-.533-.564-.94-.564-.421 0-.741.188-.961.564-.188.311-.281.69-.281 1.138 0 .435.094.808.281 1.119.227.376.543.564.951.564.4 0 .714-.191.94-.574.194-.317.291-.693.291-1.128z"/><path d="m62.765 8.719-1.475 4.714h-.96l-.611-2.047c-.155-.511-.281-1.019-.379-1.523h-.019c-.091.518-.217 1.025-.379 1.523l-.649 2.047h-.971l-1.387-4.714h1.077l.533 2.241c.129.53.235 1.035.32 1.513h.019c.078-.394.207-.896.389-1.503l.669-2.25h.854l.641 2.202c.155.537.281 1.054.378 1.552h.029c.071-.485.178-1.002.32-1.552l.572-2.202h1.029z"/><path d="m68.198 13.433h-1.048v-2.7c0-.832-.316-1.248-.95-1.248-.311 0-.562.114-.757.343-.193.229-.291.499-.291.808v2.796h-1.048v-3.366c0-.414-.013-.863-.038-1.349h.921l.049.737h.029c.122-.229.304-.418.543-.569.284-.176.602-.265.95-.265.44 0 .806.142 1.097.427.362.349.543.87.543 1.562z"/><path d="m71.088 13.433h-1.047v-6.877h1.047z"/><path d="m77.258 11.037c0 .725-.207 1.319-.621 1.785-.434.479-1.01.718-1.727.718-.693 0-1.244-.229-1.654-.689-.41-.459-.615-1.038-.615-1.736 0-.73.211-1.329.635-1.794s.994-.698 1.711-.698c.693 0 1.248.229 1.67.688.4.446.601 1.022.601 1.726zm-1.088.034c0-.435-.094-.808-.281-1.119-.219-.376-.533-.564-.939-.564-.422 0-.742.188-.961.564-.188.311-.281.69-.281 1.138 0 .435.094.808.281 1.119.227.376.543.564.951.564.4 0 .713-.191.939-.574.195-.317.291-.693.291-1.128z"/><path d="m82.33 13.433h-.941l-.078-.543h-.029c-.322.433-.781.65-1.377.65-.445 0-.805-.143-1.076-.427-.246-.258-.369-.579-.369-.96 0-.576.24-1.015.723-1.319.482-.304 1.16-.453 2.033-.446v-.088c0-.621-.326-.931-.979-.931-.465 0-.875.117-1.229.349l-.213-.688c.438-.271.979-.407 1.617-.407 1.232 0 1.85.65 1.85 1.95v1.736c0 .471.023.846.068 1.124zm-1.088-1.62v-.727c-1.156-.02-1.734.297-1.734.95 0 .246.066.43.201.553s.307.184.512.184c.23 0 .445-.073.641-.218.197-.146.318-.331.363-.558.011-.051.017-.113.017-.184z"/><path d="m88.285 13.433h-.93l-.049-.757h-.029c-.297.576-.803.864-1.514.864-.568 0-1.041-.223-1.416-.669s-.562-1.025-.562-1.736c0-.763.203-1.381.611-1.853.395-.44.879-.66 1.455-.66.633 0 1.076.213 1.328.64h.02v-2.706h1.049v5.607c0 .459.012.882.037 1.27zm-1.086-1.988v-.786c0-.136-.01-.246-.029-.33-.059-.252-.186-.464-.379-.635-.195-.171-.43-.257-.701-.257-.391 0-.697.155-.922.466-.223.311-.336.708-.336 1.193 0 .466.107.844.322 1.135.227.31.533.465.916.465.344 0 .619-.129.828-.388.202-.239.301-.527.301-.863z"/><path d="m97.248 11.037c0 .725-.207 1.319-.621 1.785-.434.479-1.008.718-1.727.718-.691 0-1.242-.229-1.654-.689-.41-.459-.615-1.038-.615-1.736 0-.73.211-1.329.635-1.794s.994-.698 1.713-.698c.691 0 1.248.229 1.668.688.4.446.601 1.022.601 1.726zm-1.086.034c0-.435-.094-.808-.281-1.119-.221-.376-.533-.564-.941-.564-.42 0-.74.188-.961.564-.188.311-.281.69-.281 1.138 0 .435.094.808.281 1.119.227.376.543.564.951.564.4 0 .715-.191.941-.574.193-.317.291-.693.291-1.128z"/><path d="m102.883 13.433h-1.047v-2.7c0-.832-.316-1.248-.951-1.248-.311 0-.562.114-.756.343s-.291.499-.291.808v2.796h-1.049v-3.366c0-.414-.012-.863-.037-1.349h.92l.049.737h.029c.123-.229.305-.418.543-.569.285-.176.602-.265.951-.265.439 0 .805.142 1.096.427.363.349.543.87.543 1.562z"/><path d="m109.936 9.504h-1.154v2.29c0 .582.205.873.611.873.188 0 .344-.016.467-.049l.027.795c-.207.078-.479.117-.814.117-.414 0-.736-.126-.969-.378-.234-.252-.35-.676-.35-1.271v-2.377h-.689v-.785h.689v-.864l1.027-.31v1.173h1.154v.786z"/><path d="m115.484 13.433h-1.049v-2.68c0-.845-.316-1.268-.949-1.268-.486 0-.818.245-1 .735-.031.103-.049.229-.049.377v2.835h-1.047v-6.876h1.047v2.841h.02c.33-.517.803-.775 1.416-.775.434 0 .793.142 1.078.427.355.355.533.883.533 1.581z"/><path d="m121.207 10.853c0 .188-.014.346-.039.475h-3.143c.014.466.164.821.455 1.067.266.22.609.33 1.029.33.465 0 .889-.074 1.271-.223l.164.728c-.447.194-.973.291-1.582.291-.73 0-1.305-.215-1.721-.645-.418-.43-.625-1.007-.625-1.731 0-.711.193-1.303.582-1.775.406-.504.955-.756 1.648-.756.678 0 1.193.252 1.541.756.281.4.42.895.42 1.483zm-1-.271c.008-.311-.061-.579-.203-.805-.182-.291-.459-.437-.834-.437-.342 0-.621.142-.834.427-.174.227-.277.498-.311.815z"/></g></svg>
      <svg id="play-store" viewBox="0 0 180 53.333"><g stroke-width=".13333"><path d="m173.33 53.333h-166.66c-3.6666 0-6.6665-2.9999-6.6665-6.6665v-39.999c0-3.6666 2.9999-6.6665 6.6665-6.6665h166.66c3.6666 0 6.6665 2.9999 6.6665 6.6665v39.999c0 3.6666-2.9999 6.6665-6.6665 6.6665" fill="#100f0d"/><path d="m173.33.001h-166.66c-3.6666 0-6.6665 2.9999-6.6665 6.6665v39.999c0 3.6666 2.9999 6.6665 6.6665 6.6665h166.66c3.6666 0 6.6665-2.9999 6.6665-6.6665v-39.999c0-3.6666-2.9999-6.6665-6.6665-6.6665zm0 1.0661c3.0879 0 5.5999 2.5125 5.5999 5.6004v39.999c0 3.0879-2.5119 5.6004-5.5999 5.6004h-166.66c-3.0879 0-5.5993-2.5125-5.5993-5.6004v-39.999c0-3.0879 2.5114-5.6004 5.5993-5.6004h166.66" fill="#a2a2a1"/><path d="m142.58 40h2.4879v-16.669h-2.4879zm22.409-10.664-2.8519 7.2264h-.0853l-2.9599-7.2264h-2.6799l4.4399 10.1-2.5319 5.6185h2.5946l6.8412-15.718zm-14.11 8.7706c-.81331 0-1.9506-.40786-1.9506-1.4156 0-1.2865 1.416-1.7797 2.6373-1.7797 1.0933 0 1.6093.23546 2.2733.55732-.19333 1.5442-1.5226 2.6379-2.9599 2.6379zm.30133-9.1352c-1.8013 0-3.6666.79371-4.4386 2.5521l2.208.92184c.47198-.92184 1.3506-1.2218 2.2733-1.2218 1.2866 0 2.5946.77131 2.6159 2.1442v.17133c-.45066-.25733-1.416-.64318-2.5946-.64318-2.3813 0-4.8039 1.3077-4.8039 3.7524 0 2.2302 1.952 3.6671 4.1386 3.6671 1.672 0 2.5959-.75054 3.1732-1.6301h.0867v1.2874h2.4026v-6.391c0-2.9593-2.2106-4.6103-5.0612-4.6103zm-15.376 2.3937h-3.5386v-5.7133h3.5386c1.86 0 2.9159 1.5396 2.9159 2.8566 0 1.2917-1.056 2.8567-2.9159 2.8567zm-.064-8.0337h-5.9614v16.669h2.4869v-6.3149h3.4746c2.7573 0 5.4679-1.9958 5.4679-5.1765 0-3.1801-2.7106-5.1769-5.4679-5.1769zm-32.507 14.778c-1.7188 0-3.1573-1.4396-3.1573-3.415 0-1.9984 1.4385-3.4583 3.1573-3.4583 1.6969 0 3.0286 1.46 3.0286 3.4583 0 1.9754-1.3317 3.415-3.0286 3.415zm2.8567-7.8403h-.086c-.55826-.66572-1.6328-1.2672-2.9853-1.2672-2.8359 0-5.4348 2.4921-5.4348 5.6925 0 3.1786 2.5989 5.6488 5.4348 5.6488 1.3525 0 2.427-.6016 2.9853-1.2885h.086v.81558c0 2.1703-1.1598 3.3296-3.0286 3.3296-1.5245 0-2.4697-1.0953-2.8567-2.0188l-2.1691.90206c.62238 1.503 2.2759 3.351 5.0259 3.351 2.9218 0 5.392-1.7188 5.392-5.9077v-10.181h-2.3634zm4.0822 9.7304h2.4906v-16.669h-2.4906zm6.164-5.4988c-.0641-2.1911 1.6978-3.3078 2.9645-3.3078.98851 0 1.8254.49425 2.1057 1.2026zm7.7326-1.8906c-.47238-1.2666-1.9114-3.6082-4.8541-3.6082-2.9218 0-5.3488 2.2983-5.3488 5.6707 0 3.1791 2.4062 5.6707 5.6275 5.6707 2.5989 0 4.1031-1.589 4.7264-2.513l-1.9333-1.289c-.64465.94531-1.5249 1.5682-2.7931 1.5682-1.2666 0-2.1692-.58012-2.7483-1.7186l7.5815-3.1359zm-60.409-1.8682v2.4057h5.7565c-.17186 1.3532-.62292 2.3411-1.3104 3.0286-.83798.83745-2.1483 1.7614-4.4462 1.7614-3.5443 0-6.315-2.8567-6.315-6.4009s2.7707-6.4013 6.315-6.4013c1.9118 0 3.3077.75198 4.3388 1.7186l1.6974-1.6973c-1.4396-1.3745-3.351-2.427-6.0362-2.427-4.8552 0-8.9363 3.9524-8.9363 8.807 0 4.8541 4.0811 8.8066 8.9363 8.8066 2.6202 0 4.5967-.85932 6.143-2.4702 1.5896-1.5896 2.0838-3.8234 2.0838-5.628 0-.55785-.04333-1.0734-.1292-1.5032zm14.772 7.3675c-1.7188 0-3.201-1.4177-3.201-3.4368 0-2.0406 1.4822-3.4364 3.201-3.4364 1.7181 0 3.2003 1.3958 3.2003 3.4364 0 2.0191-1.4822 3.4368-3.2003 3.4368zm0-9.1075c-3.137 0-5.6927 2.3842-5.6927 5.6707 0 3.265 2.5557 5.6707 5.6927 5.6707 3.1358 0 5.692-2.4057 5.692-5.6707 0-3.2865-2.5562-5.6707-5.692-5.6707zm12.417 9.1075c-1.7176 0-3.2003-1.4177-3.2003-3.4368 0-2.0406 1.4828-3.4364 3.2003-3.4364 1.7188 0 3.2005 1.3958 3.2005 3.4364 0 2.0191-1.4817 3.4368-3.2005 3.4368zm0-9.1075c-3.1358 0-5.6915 2.3842-5.6915 5.6707 0 3.265 2.5557 5.6707 5.6915 5.6707 3.137 0 5.6927-2.4057 5.6927-5.6707 0-3.2865-2.5557-5.6707-5.6927-5.6707" fill="#fff"/><path d="m27.622 25.899-14.194 15.066c.000534.0031.0016.0057.0021.0089.43532 1.636 1.9296 2.8406 3.703 2.8406.70892 0 1.3745-.19166 1.9453-.52812l.04533-.02656 15.978-9.22-7.479-8.141" fill="#eb3131"/><path d="m41.983 23.334-.0136-.0093-6.8982-3.999-7.7717 6.9156 7.7987 7.7977 6.8618-3.9592c1.203-.64945 2.0197-1.9177 2.0197-3.3802 0-1.452-.80571-2.7139-1.9968-3.3655" fill="#f6b60b"/><path d="m13.426 12.37c-.08533.31466-.13018.64425-.13018.98651v26.623c0 .34162.04432.67233.13072.98587l14.684-14.681-14.684-13.914" fill="#5778c5"/><path d="m27.727 26.668 7.3473-7.3451-15.96-9.2534c-.58012-.34746-1.2572-.54799-1.9817-.54799-1.7734 0-3.2697 1.2068-3.7051 2.8447-.000534.0016-.000534.0027-.000534.0041l14.3 14.298" fill="#3bad49"/></g><path d="m63.193 13.042h-3.8895v.96251h2.9146c-.0792.78545-.39172 1.4021-.91878 1.85-.52705.44799-1.2.67292-1.9958.67292-.87291 0-1.6125-.30413-2.2186-.90824-.59385-.61665-.89584-1.3792-.89584-2.2979 0-.91864.30199-1.6812.89584-2.2978.60612-.60412 1.3457-.90624 2.2186-.90624.44799 0 .87504.07707 1.2666.24586.39172.16866.70625.40412.95211.70625l.73958-.73958c-.33546-.38132-.76038-.67292-1.2876-.88544-.52705-.21253-1.077-.31453-1.6708-.31453-1.1645 0-2.1519.40412-2.9582 1.2104-.80625.80825-1.2104 1.8041-1.2104 2.9811s.40412 2.175 1.2104 2.9813c.80625.80611 1.7937 1.2104 2.9582 1.2104 1.2229 0 2.1979-.39172 2.9479-1.1876.66038-.66238.99784-1.5582.99784-2.679 0-.1896-.02293-.39172-.05627-.60425zm1.5068-3.7332v8.0249h4.6852v-.98544h-3.654v-2.5457h3.2958v-.96251h-3.2958v-2.5437h3.654v-.98758zm11.255.98758v-.98758h-5.5145v.98758h2.2417v7.0373h1.0312v-7.0373zm4.9925-.98758h-1.0312v8.0249h1.0312zm6.8066.98758v-.98758h-5.5144v.98758h2.2415v7.0373h1.0312v-7.0373zm10.406.05626c-.79585-.81877-1.7708-1.2229-2.9354-1.2229-1.1666 0-2.1415.40412-2.9374 1.2104-.79585.79585-1.1874 1.7937-1.1874 2.9811s.39159 2.1854 1.1874 2.9813c.79585.80611 1.7708 1.2104 2.9374 1.2104 1.1541 0 2.1395-.40426 2.9354-1.2104.79585-.79585 1.1874-1.7938 1.1874-2.9813 0-1.177-.39159-2.1729-1.1874-2.9686zm-5.1332.67078c.59372-.60412 1.3229-.90624 2.1978-.90624.87291 0 1.6021.30213 2.1854.90624.59372.59372.88531 1.3686.88531 2.2978 0 .93131-.29159 1.7041-.88531 2.2979-.58332.60412-1.3125.90824-2.1854.90824-.87491 0-1.6041-.30413-2.1978-.90824-.58132-.60625-.87291-1.3666-.87291-2.2979 0-.92918.29159-1.6916.87291-2.2978zm8.7706 1.3125-.0437-1.548h.0437l4.0791 6.5457h1.077v-8.0249h-1.0312v4.6957l.0437 1.548h-.0437l-3.8999-6.2437h-1.2562v8.0249h1.0312z" fill="#fff" stroke="#fff" stroke-miterlimit="10" stroke-width=".26666"/></svg>
</svg>