<?xml version="1.0" encoding="utf-8"?>
<!-- Generator: Adobe Illustrator 27.9.4, SVG Export Plug-In . SVG Version: 9.03 Build 54784)  -->
<svg version="1.1" id="Camada_1" xmlns="http://www.w3.org/2000/svg" xmlns:xlink="http://www.w3.org/1999/xlink" x="0px" y="0px"
	 viewBox="0 0 484.6 846.9" style="enable-background:new 0 0 484.6 846.9;" xml:space="preserve">
<style type="text/css">
	.st0{fill:#0E60F1;}
	.st1{fill:#F0F0F0;}
	.st2{fill:#212121;}
	.st3{fill:#FFFFFF;}
</style>
<g>
	<g>
		<g>
			<g>
				<g>
					<path class="st0" d="M-1953.8-1926.8h-53c-4.9,0-8.9-4-8.9-8.9v-57.3h-124.5v57.3c0,42.4,19.9,80.2,50.8,104.7h-50.8v124.5h53
						c4.9,0,8.9,4,8.9,8.9v57.3h124.5v-57.3c0-42.4-19.9-80.2-50.8-104.7h50.8V-1926.8z M-1988.1-1674.6h-55.9v-23
						c0-23.8-19.4-43.2-43.2-43.2h-18.7v-55.9h18.7c54.6,0,99.1,44.5,99.1,99.1V-1674.6z M-1988.1-1836.6h-18.7
						c-54.6,0-99.1-44.5-99.1-99.1v-23h55.9v23c0,23.8,19.4,43.2,43.2,43.2h18.7V-1836.6z"/>
				</g>
			</g>
		</g>
		<g>
			<g>
				<path class="st1" d="M-1837.5-1847.9v31.8h-12.7c-22.6,0-41-18.4-41-41V-1993h31.8v38.6h20.9v31.8h-20.9v65.5
					c0,5.1,4.1,9.2,9.2,9.2H-1837.5z"/>
				<path class="st1" d="M-1797-1878.5c3.8,18.6,18.8,32.4,36.7,32.4c13.4,0,25.2-7.8,31.8-19.5h33.1c-8.9,29-34.6,50-64.9,50
					c-37.6,0-68.2-32.4-68.2-72.4c0-39.9,30.6-72.4,68.2-72.4c30.3,0,56,21,64.9,50.1c2.2,7,3.3,14.5,3.3,22.3
					c0,3.2-0.2,6.4-0.6,9.5H-1797z M-1728.6-1910.3c-6.6-11.7-18.4-19.5-31.8-19.5c-13.4,0-25.2,7.8-31.8,19.5H-1728.6z"/>
				<path class="st1" d="M-1541.3-1962.4v73.3c0,40.3-30.9,73.1-68.9,73.1c-38,0-68.9-32.8-68.9-73.1v-73h31.8v73
					c0,22.7,16.6,41.2,37,41.2c20.4,0,37-18.5,37-41.2v-73.3H-1541.3z"/>
				<path class="st1" d="M-1788.1-1697.4h33.1c-6.8,32.6-34.4,57.1-67.2,57.1c-38,0-68.9-32.7-68.9-73c0-40.3,30.9-73.1,68.9-73.1
					c32.9,0,60.4,24.5,67.2,57.2h-33.1c-5.6-14.9-18.8-25.3-34.2-25.3c-20.4,0-37,18.5-37,41.2c0,22.7,16.6,41.2,37,41.2
					C-1806.9-1672.1-1793.7-1682.6-1788.1-1697.4z"/>
				<path class="st1" d="M-1634.4-1747.7v102.8h-31.8v-6.1c-11.7,7.6-23.4,8.7-29.1,8.7c-28.2,0-51.2-22.9-51.2-51.2
					c0-28.2,22.9-51.2,51.2-51.1h29.1v-3.2c0-4.9-4-8.8-8.8-8.8h-20.3v-31.8h20.3C-1652.7-1788.4-1634.4-1770.1-1634.4-1747.7z
					 M-1666.9-1712.6h-28.5c-10.6,0-19.3,8.7-19.3,19.3c0,10.6,8.7,19.3,19.3,19.3C-1676.3-1674-1669.4-1696.2-1666.9-1712.6z"/>
				<path class="st1" d="M-1539.1-1788.4v32h-41.9v114.4h-31.6v-146.4H-1539.1z"/>
				<path class="st1" d="M-1401.2-1833.3v188.8h-31.5v-5.2c-10,6-21.6,9.4-33.9,9.4c-38,0-68.9-32.8-68.9-73.1
					c0-40.3,30.9-73,68.9-73c12.3,0,23.8,3.4,33.9,9.4v-56.3H-1401.2z M-1432.8-1713.6c0,0,0-0.1,0-0.2c0-1-0.1-2.1-0.2-3.3
					c0-0.6-0.1-1.1-0.2-1.7c0-0.4-0.1-0.7-0.1-1.1c-0.5-3.8-1.4-7.4-2.8-10.8c-3.6-9.5-10.5-18.9-22.5-22.6
					c-2.5-0.8-5.2-1.3-7.9-1.5c-0.1,0-0.1,0-0.2,0c-0.1,0-0.2,0-0.3,0c-0.4,0-0.9-0.1-1.3-0.1c-0.3,0-0.6,0-1,0.1
					c-0.9,0-1.7,0.1-2.6,0.1c-0.1,0-0.2,0-0.2,0c-4.7,0.5-9.1,2.2-13.1,4.7c-0.1,0-0.1,0.1-0.2,0.1c-0.9,0.6-1.7,1.1-2.5,1.8
					c-0.6,0.5-1.3,1-1.9,1.6c-0.2,0.2-0.4,0.4-0.6,0.6c-8.2,7.6-13.4,19.2-13.4,32.3c0,0,0,0,0,0c0,0,0,0,0,0c0,0,0,0.1,0,0.1
					c0.1,21.9,14.7,39.7,33.3,41c0,0,0,0,0,0c0.7,0.1,1.4,0.1,2.2,0.1c0.2,0,0.5,0,0.7,0c0.3,0,0.6,0,0.9,0c0.7,0,1.3-0.1,1.9-0.2
					c0.1,0,0.1,0,0.2,0c6.8-0.7,12.4-3.5,16.9-7.5c9-7.5,14.9-19.7,14.9-33.5C-1432.8-1713.4-1432.8-1713.5-1432.8-1713.6z"/>
			</g>
		</g>
	</g>
</g>
<g>
	<g>
		<g>
			<g>
				<g>
					<path class="st0" d="M1082-1924.3h-53c-4.9,0-8.9-4-8.9-8.9v-57.3H895.5v57.3c0,42.4,19.9,80.2,50.8,104.7h-50.8v124.5h53
						c4.9,0,8.9,4,8.9,8.9v57.3H1082v-57.3c0-42.4-19.9-80.2-50.8-104.7h50.8V-1924.3z M1047.6-1672.1h-55.9v-23
						c0-23.8-19.4-43.2-43.2-43.2h-18.7v-55.9h18.7c54.6,0,99.1,44.5,99.1,99.1V-1672.1z M1047.6-1834.1H1029
						c-54.6,0-99.1-44.5-99.1-99.1v-23h55.9v23c0,23.8,19.4,43.2,43.2,43.2h18.7V-1834.1z"/>
				</g>
			</g>
		</g>
		<g>
			<g>
				<path class="st0" d="M1198.3-1845.4v31.8h-12.7c-22.6,0-41-18.4-41-41v-135.9h31.8v38.6h20.9v31.8h-20.9v65.5
					c0,5.1,4.1,9.2,9.2,9.2H1198.3z"/>
				<path class="st0" d="M1238.7-1876c3.8,18.6,18.8,32.4,36.7,32.4c13.4,0,25.2-7.8,31.8-19.5h33.1c-8.9,29-34.6,50-64.9,50
					c-37.6,0-68.2-32.4-68.2-72.4c0-39.9,30.6-72.4,68.2-72.4c30.3,0,56,21,64.9,50.1c2.2,7,3.3,14.5,3.3,22.3
					c0,3.2-0.2,6.4-0.6,9.5H1238.7z M1307.1-1907.8c-6.6-11.7-18.4-19.5-31.8-19.5c-13.4,0-25.2,7.8-31.8,19.5H1307.1z"/>
				<path class="st0" d="M1494.5-1959.9v73.3c0,40.3-30.9,73.1-68.9,73.1c-38,0-68.9-32.8-68.9-73.1v-73h31.8v73
					c0,22.7,16.6,41.2,37,41.2c20.4,0,37-18.5,37-41.2v-73.3H1494.5z"/>
				<path class="st0" d="M1247.6-1694.9h33.1c-6.8,32.6-34.4,57.1-67.2,57.1c-38,0-68.9-32.7-68.9-73c0-40.3,30.9-73.1,68.9-73.1
					c32.9,0,60.4,24.5,67.2,57.2h-33.1c-5.6-14.9-18.8-25.3-34.2-25.3c-20.4,0-37,18.5-37,41.2s16.6,41.2,37,41.2
					C1228.8-1669.6,1242-1680.1,1247.6-1694.9z"/>
				<path class="st0" d="M1401.3-1745.2v102.8h-31.8v-6.1c-11.7,7.6-23.4,8.7-29.1,8.7c-28.2,0-51.2-22.9-51.2-51.2
					c0-28.2,22.9-51.2,51.2-51.1h29.1v-3.2c0-4.9-4-8.8-8.8-8.8h-20.3v-31.8h20.3C1383-1785.9,1401.3-1767.6,1401.3-1745.2z
					 M1368.8-1710.1h-28.5c-10.6,0-19.3,8.7-19.3,19.3c0,10.6,8.7,19.3,19.3,19.3C1359.4-1671.5,1366.4-1693.7,1368.8-1710.1z"/>
				<path class="st0" d="M1496.6-1785.9v32h-41.9v114.4h-31.6v-146.4H1496.6z"/>
				<path class="st0" d="M1634.5-1830.8v188.8H1603v-5.2c-10,6-21.6,9.4-33.9,9.4c-38,0-68.9-32.8-68.9-73.1c0-40.3,30.9-73,68.9-73
					c12.3,0,23.8,3.4,33.9,9.4v-56.3H1634.5z M1603-1711.1c0,0,0-0.1,0-0.2c0-1-0.1-2.1-0.2-3.3c0-0.6-0.1-1.1-0.2-1.7
					c0-0.4-0.1-0.7-0.1-1.1c-0.5-3.8-1.4-7.4-2.8-10.8c-3.6-9.5-10.5-18.9-22.5-22.6c-2.5-0.8-5.2-1.3-7.9-1.5c-0.1,0-0.1,0-0.2,0
					c-0.1,0-0.2,0-0.3,0c-0.4,0-0.9-0.1-1.3-0.1c-0.3,0-0.6,0-1,0.1c-0.9,0-1.7,0.1-2.6,0.1c-0.1,0-0.2,0-0.2,0
					c-4.7,0.5-9.2,2.2-13.1,4.7c-0.1,0-0.1,0.1-0.2,0.1c-0.9,0.6-1.7,1.1-2.5,1.8c-0.6,0.5-1.3,1-1.9,1.6c-0.2,0.2-0.4,0.4-0.6,0.6
					c-8.2,7.6-13.4,19.2-13.4,32.3c0,0,0,0,0,0c0,0,0,0,0,0c0,0,0,0.1,0,0.1c0.1,21.9,14.7,39.7,33.3,41c0,0,0,0,0,0
					c0.7,0.1,1.4,0.1,2.2,0.1c0.2,0,0.5,0,0.7,0c0.3,0,0.6,0,0.9,0c0.7,0,1.3-0.1,1.9-0.2c0.1,0,0.1,0,0.2,0
					c6.8-0.7,12.4-3.5,16.9-7.5c9-7.5,14.9-19.7,14.9-33.5C1603-1710.9,1602.9-1711,1603-1711.1z"/>
			</g>
		</g>
	</g>
</g>
<g>
	<g>
		<g>
			<g>
				<g>
					<path class="st0" d="M-1194.8-1926.8h-53c-4.9,0-8.9-4-8.9-8.9v-57.3h-124.5v57.3c0,42.4,19.9,80.2,50.8,104.7h-50.8v124.5h53
						c4.9,0,8.9,4,8.9,8.9v57.3h124.5v-57.3c0-42.4-19.9-80.2-50.8-104.7h50.8V-1926.8z M-1229.2-1674.6h-55.9v-23
						c0-23.8-19.4-43.2-43.2-43.2h-18.7v-55.9h18.7c54.6,0,99.1,44.5,99.1,99.1V-1674.6z M-1229.2-1836.6h-18.7
						c-54.6,0-99.1-44.5-99.1-99.1v-23h55.9v23c0,23.8,19.4,43.2,43.2,43.2h18.7V-1836.6z"/>
				</g>
			</g>
		</g>
		<g>
			<path class="st2" d="M-1078.5-1847.9v31.8h-12.7c-22.6,0-41-18.4-41-41V-1993h31.8v38.6h20.9v31.8h-20.9v65.5
				c0,5.1,4.1,9.2,9.2,9.2H-1078.5z"/>
			<path class="st2" d="M-1038.1-1878.5c3.8,18.6,18.8,32.4,36.7,32.4c13.4,0,25.2-7.8,31.8-19.5h33.1c-8.9,29-34.6,50-64.9,50
				c-37.6,0-68.2-32.4-68.2-72.4c0-39.9,30.6-72.4,68.2-72.4c30.3,0,56,21,64.9,50.1c2.2,7,3.3,14.5,3.3,22.3c0,3.2-0.2,6.4-0.6,9.5
				H-1038.1z M-969.6-1910.3c-6.6-11.7-18.4-19.5-31.8-19.5c-13.4,0-25.2,7.8-31.8,19.5H-969.6z"/>
			<path class="st2" d="M-782.3-1962.4v73.3c0,40.3-30.9,73.1-68.9,73.1c-38,0-68.9-32.8-68.9-73.1v-73h31.8v73
				c0,22.7,16.6,41.2,37,41.2c20.4,0,37-18.5,37-41.2v-73.3H-782.3z"/>
			<path class="st2" d="M-1029.2-1697.4h33.1c-6.8,32.6-34.4,57.1-67.2,57.1c-38,0-68.9-32.7-68.9-73c0-40.3,30.9-73.1,68.9-73.1
				c32.9,0,60.4,24.5,67.2,57.2h-33.1c-5.6-14.9-18.8-25.3-34.2-25.3c-20.4,0-37,18.5-37,41.2c0,22.7,16.6,41.2,37,41.2
				C-1048-1672.1-1034.8-1682.6-1029.2-1697.4z"/>
			<path class="st2" d="M-875.5-1747.7v102.8h-31.8v-6.1c-11.7,7.6-23.4,8.7-29.1,8.7c-28.2,0-51.2-22.9-51.2-51.2
				c0-28.2,22.9-51.2,51.2-51.1h29.1v-3.2c0-4.9-4-8.8-8.8-8.8h-20.3v-31.8h20.3C-893.7-1788.4-875.5-1770.1-875.5-1747.7z
				 M-907.9-1712.6h-28.5c-10.6,0-19.3,8.7-19.3,19.3c0,10.6,8.7,19.3,19.3,19.3C-917.3-1674-910.4-1696.2-907.9-1712.6z"/>
			<path class="st2" d="M-780.2-1788.4v32h-41.9v114.4h-31.6v-146.4H-780.2z"/>
			<path class="st2" d="M-642.3-1833.3v188.8h-31.5v-5.2c-10,6-21.6,9.4-33.9,9.4c-38,0-68.9-32.8-68.9-73.1c0-40.3,30.9-73,68.9-73
				c12.3,0,23.8,3.4,33.9,9.4v-56.3H-642.3z M-673.8-1713.6c0,0,0-0.1,0-0.2c0-1-0.1-2.1-0.2-3.3c0-0.6-0.1-1.1-0.2-1.7
				c0-0.4-0.1-0.7-0.1-1.1c-0.5-3.8-1.4-7.4-2.8-10.8c-3.6-9.5-10.5-18.9-22.5-22.6c-2.5-0.8-5.2-1.3-7.9-1.5c-0.1,0-0.1,0-0.2,0
				c-0.1,0-0.2,0-0.3,0c-0.4,0-0.9-0.1-1.3-0.1c-0.3,0-0.6,0-1,0.1c-0.9,0-1.7,0.1-2.6,0.1c-0.1,0-0.2,0-0.2,0
				c-4.7,0.5-9.1,2.2-13.1,4.7c-0.1,0-0.1,0.1-0.2,0.1c-0.9,0.6-1.7,1.1-2.5,1.8c-0.6,0.5-1.3,1-1.9,1.6c-0.2,0.2-0.4,0.4-0.6,0.6
				c-8.2,7.6-13.4,19.2-13.4,32.3c0,0,0,0,0,0c0,0,0,0,0,0c0,0,0,0.1,0,0.1c0.1,21.9,14.7,39.7,33.3,41c0,0,0,0,0,0
				c0.7,0.1,1.4,0.1,2.2,0.1c0.2,0,0.5,0,0.7,0c0.3,0,0.6,0,0.9,0c0.7,0,1.3-0.1,1.9-0.2c0.1,0,0.1,0,0.2,0
				c6.8-0.7,12.4-3.5,16.9-7.5c9-7.5,14.9-19.7,14.9-33.5C-673.8-1713.4-673.8-1713.5-673.8-1713.6z"/>
		</g>
	</g>
</g>
<g>
	<g>
		<g>
			<g>
				<g>
					<path class="st3" d="M323-1924.3h-53c-4.9,0-8.9-4-8.9-8.9v-57.3H136.6v57.3c0,42.4,19.9,80.2,50.8,104.7h-50.8v124.5h53
						c4.9,0,8.9,4,8.9,8.9v57.3H323v-57.3c0-42.4-19.9-80.2-50.8-104.7H323V-1924.3z M288.7-1672.1h-55.9v-23
						c0-23.8-19.4-43.2-43.2-43.2h-18.7v-55.9h18.7c54.6,0,99.1,44.5,99.1,99.1V-1672.1z M288.7-1834.1H270
						c-54.6,0-99.1-44.5-99.1-99.1v-23h55.9v23c0,23.8,19.4,43.2,43.2,43.2h18.7V-1834.1z"/>
				</g>
			</g>
		</g>
		<g>
			<path class="st3" d="M439.3-1845.4v31.8h-12.7c-22.6,0-41-18.4-41-41v-135.9h31.8v38.6h20.9v31.8h-20.9v65.5
				c0,5.1,4.1,9.2,9.2,9.2H439.3z"/>
			<path class="st3" d="M479.8-1876c3.8,18.6,18.8,32.4,36.7,32.4c13.4,0,25.2-7.8,31.8-19.5h33.1c-8.9,29-34.6,50-64.9,50
				c-37.6,0-68.2-32.4-68.2-72.4c0-39.9,30.6-72.4,68.2-72.4c30.3,0,56,21,64.9,50.1c2.2,7,3.3,14.5,3.3,22.3c0,3.2-0.2,6.4-0.6,9.5
				H479.8z M548.2-1907.8c-6.6-11.7-18.4-19.5-31.8-19.5c-13.4,0-25.2,7.8-31.8,19.5H548.2z"/>
			<path class="st3" d="M735.5-1959.9v73.3c0,40.3-30.9,73.1-68.9,73.1c-38,0-68.9-32.8-68.9-73.1v-73h31.8v73
				c0,22.7,16.6,41.2,37,41.2c20.4,0,37-18.5,37-41.2v-73.3H735.5z"/>
			<path class="st3" d="M488.7-1694.9h33.1c-6.8,32.6-34.4,57.1-67.2,57.1c-38,0-68.9-32.7-68.9-73c0-40.3,30.9-73.1,68.9-73.1
				c32.9,0,60.4,24.5,67.2,57.2h-33.1c-5.6-14.9-18.8-25.3-34.2-25.3c-20.4,0-37,18.5-37,41.2s16.6,41.2,37,41.2
				C469.9-1669.6,483.1-1680.1,488.7-1694.9z"/>
			<path class="st3" d="M642.4-1745.2v102.8h-31.8v-6.1c-11.7,7.6-23.4,8.7-29.1,8.7c-28.2,0-51.2-22.9-51.2-51.2
				c0-28.2,22.9-51.2,51.2-51.1h29.1v-3.2c0-4.9-4-8.8-8.8-8.8h-20.3v-31.8h20.3C624.1-1785.9,642.4-1767.6,642.4-1745.2z
				 M609.9-1710.1h-28.5c-10.6,0-19.3,8.7-19.3,19.3c0,10.6,8.7,19.3,19.3,19.3C600.5-1671.5,607.4-1693.7,609.9-1710.1z"/>
			<path class="st3" d="M737.7-1785.9v32h-41.9v114.4h-31.6v-146.4H737.7z"/>
			<path class="st3" d="M875.5-1830.8v188.8H844v-5.2c-10,6-21.6,9.4-33.9,9.4c-38,0-68.9-32.8-68.9-73.1c0-40.3,30.9-73,68.9-73
				c12.3,0,23.8,3.4,33.9,9.4v-56.3H875.5z M844-1711.1c0,0,0-0.1,0-0.2c0-1-0.1-2.1-0.2-3.3c0-0.6-0.1-1.1-0.2-1.7
				c0-0.4-0.1-0.7-0.1-1.1c-0.5-3.8-1.4-7.4-2.8-10.8c-3.6-9.5-10.5-18.9-22.5-22.6c-2.5-0.8-5.2-1.3-7.9-1.5c-0.1,0-0.1,0-0.2,0
				c-0.1,0-0.2,0-0.3,0c-0.4,0-0.9-0.1-1.3-0.1c-0.3,0-0.6,0-1,0.1c-0.9,0-1.7,0.1-2.6,0.1c-0.1,0-0.2,0-0.2,0
				c-4.7,0.5-9.1,2.2-13.1,4.7c-0.1,0-0.1,0.1-0.2,0.1c-0.9,0.6-1.7,1.1-2.5,1.8c-0.6,0.5-1.3,1-1.9,1.6c-0.2,0.2-0.4,0.4-0.6,0.6
				c-8.2,7.6-13.4,19.2-13.4,32.3c0,0,0,0,0,0c0,0,0,0,0,0c0,0,0,0.1,0,0.1c0.1,21.9,14.7,39.7,33.3,41c0,0,0,0,0,0
				c0.7,0.1,1.4,0.1,2.2,0.1c0.2,0,0.5,0,0.7,0c0.3,0,0.6,0,0.9,0c0.7,0,1.3-0.1,1.9-0.2c0.1,0,0.1,0,0.2,0
				c6.8-0.7,12.4-3.5,16.9-7.5c9-7.5,14.9-19.7,14.9-33.5C844-1710.9,844-1711,844-1711.1z"/>
		</g>
	</g>
</g>
<g>
	<g>
		<g>
			<g>
				<g>
					<path d="M-435.9-1924.3h-53c-4.9,0-8.9-4-8.9-8.9v-57.3h-124.5v57.3c0,42.4,19.9,80.2,50.8,104.7h-50.8v124.5h53
						c4.9,0,8.9,4,8.9,8.9v57.3h124.5v-57.3c0-42.4-19.9-80.2-50.8-104.7h50.8V-1924.3z M-470.2-1672.1h-55.9v-23
						c0-23.8-19.4-43.2-43.2-43.2H-588v-55.9h18.7c54.6,0,99.1,44.5,99.1,99.1V-1672.1z M-470.2-1834.1h-18.7
						c-54.6,0-99.1-44.5-99.1-99.1v-23h55.9v23c0,23.8,19.4,43.2,43.2,43.2h18.7V-1834.1z"/>
				</g>
			</g>
		</g>
		<g>
			<path d="M-319.6-1845.4v31.8h-12.7c-22.6,0-41-18.4-41-41v-135.9h31.8v38.6h20.9v31.8h-20.9v65.5c0,5.1,4.1,9.2,9.2,9.2H-319.6z"
				/>
			<path d="M-279.2-1876c3.8,18.6,18.8,32.4,36.7,32.4c13.4,0,25.2-7.8,31.8-19.5h33.1c-8.9,29-34.6,50-64.9,50
				c-37.6,0-68.2-32.4-68.2-72.4c0-39.9,30.6-72.4,68.2-72.4c30.3,0,56,21,64.9,50.1c2.2,7,3.3,14.5,3.3,22.3c0,3.2-0.2,6.4-0.6,9.5
				H-279.2z M-210.7-1907.8c-6.6-11.7-18.4-19.5-31.8-19.5c-13.4,0-25.2,7.8-31.8,19.5H-210.7z"/>
			<path d="M-23.4-1959.9v73.3c0,40.3-30.9,73.1-68.9,73.1c-38,0-68.9-32.8-68.9-73.1v-73h31.8v73c0,22.7,16.6,41.2,37,41.2
				c20.4,0,37-18.5,37-41.2v-73.3H-23.4z"/>
			<path d="M-270.2-1694.9h33.1c-6.8,32.6-34.4,57.1-67.2,57.1c-38,0-68.9-32.7-68.9-73c0-40.3,30.9-73.1,68.9-73.1
				c32.9,0,60.4,24.5,67.2,57.2h-33.1c-5.6-14.9-18.8-25.3-34.2-25.3c-20.4,0-37,18.5-37,41.2s16.6,41.2,37,41.2
				C-289.1-1669.6-275.9-1680.1-270.2-1694.9z"/>
			<path d="M-116.6-1745.2v102.8h-31.8v-6.1c-11.7,7.6-23.4,8.7-29.1,8.7c-28.2,0-51.2-22.9-51.2-51.2c0-28.2,22.9-51.2,51.2-51.1
				h29.1v-3.2c0-4.9-4-8.8-8.8-8.8h-20.3v-31.8h20.3C-134.8-1785.9-116.6-1767.6-116.6-1745.2z M-149-1710.1h-28.5
				c-10.6,0-19.3,8.7-19.3,19.3c0,10.6,8.7,19.3,19.3,19.3C-158.4-1671.5-151.5-1693.7-149-1710.1z"/>
			<path d="M-21.3-1785.9v32h-41.9v114.4h-31.6v-146.4H-21.3z"/>
			<path d="M116.6-1830.8v188.8H85.1v-5.2c-10,6-21.6,9.4-33.9,9.4c-38,0-68.9-32.8-68.9-73.1c0-40.3,30.9-73,68.9-73
				c12.3,0,23.8,3.4,33.9,9.4v-56.3H116.6z M85.1-1711.1c0,0,0-0.1,0-0.2c0-1-0.1-2.1-0.2-3.3c0-0.6-0.1-1.1-0.2-1.7
				c0-0.4-0.1-0.7-0.1-1.1c-0.5-3.8-1.4-7.4-2.8-10.8c-3.6-9.5-10.5-18.9-22.5-22.6c-2.5-0.8-5.2-1.3-7.9-1.5c-0.1,0-0.1,0-0.2,0
				c-0.1,0-0.2,0-0.3,0c-0.4,0-0.9-0.1-1.3-0.1c-0.3,0-0.6,0-1,0.1c-0.9,0-1.7,0.1-2.6,0.1c-0.1,0-0.2,0-0.2,0
				c-4.7,0.5-9.1,2.2-13.1,4.7c-0.1,0-0.1,0.1-0.2,0.1c-0.9,0.6-1.7,1.1-2.5,1.8c-0.6,0.5-1.3,1-1.9,1.6c-0.2,0.2-0.4,0.4-0.6,0.6
				c-8.2,7.6-13.4,19.2-13.4,32.3c0,0,0,0,0,0c0,0,0,0,0,0c0,0,0,0.1,0,0.1c0.1,21.9,14.7,39.7,33.3,41c0,0,0,0,0,0
				c0.7,0.1,1.4,0.1,2.2,0.1c0.2,0,0.5,0,0.7,0c0.3,0,0.6,0,0.9,0c0.7,0,1.3-0.1,1.9-0.2c0.1,0,0.1,0,0.2,0
				c6.8-0.7,12.4-3.5,16.9-7.5c9-7.5,14.9-19.7,14.9-33.5C85.1-1710.9,85.1-1711,85.1-1711.1z"/>
		</g>
	</g>
</g>
<g>
	<g>
		<g>
			<g>
				<path class="st0" d="M-1996.3-642.9v26.2h-10.4c-18.7,0-33.8-15.2-33.8-33.8v-112h26.2v31.8h17.2v26.2h-17.2v54
					c0,4.2,3.4,7.6,7.6,7.6H-1996.3z"/>
				<path class="st0" d="M-1962.9-668.1c3.1,15.3,15.5,26.7,30.2,26.7c11,0,20.7-6.4,26.2-16.1h27.3c-7.3,23.9-28.5,41.2-53.5,41.2
					c-31,0-56.2-26.7-56.2-59.7c0-32.9,25.2-59.7,56.2-59.7c24.9,0,46.1,17.3,53.5,41.2c1.8,5.8,2.8,12,2.8,18.4
					c0,2.7-0.2,5.2-0.5,7.8H-1962.9z M-1906.5-694.4c-5.4-9.7-15.1-16.1-26.2-16.1c-11.1,0-20.8,6.4-26.2,16.1H-1906.5z"/>
				<path class="st0" d="M-1752.1-737.3v60.4c0,33.2-25.5,60.2-56.8,60.2c-31.3,0-56.8-27-56.8-60.2v-60.2h26.2v60.2
					c0,18.7,13.7,34,30.5,34c16.8,0,30.5-15.2,30.5-34v-60.4H-1752.1z"/>
				<path class="st0" d="M-1656.2-662.5h27.3c-5.6,26.9-28.3,47.1-55.4,47.1c-31.3,0-56.8-27-56.8-60.2c0-33.2,25.5-60.2,56.8-60.2
					c27.1,0,49.8,20.2,55.4,47.1h-27.3c-4.6-12.2-15.5-20.9-28.2-20.9c-16.8,0-30.5,15.3-30.5,34s13.7,33.9,30.5,33.9
					C-1671.7-641.7-1660.8-650.3-1656.2-662.5z"/>
				<path class="st0" d="M-1529.5-703.9v84.8h-26.2v-5c-9.7,6.3-19.3,7.2-24,7.2c-23.2,0-42.2-18.9-42.2-42.2
					c0-23.2,18.9-42.2,42.2-42.2h24v-2.6c0-4-3.3-7.3-7.3-7.3h-16.7v-26.2h16.7C-1544.5-737.5-1529.5-722.4-1529.5-703.9z
					 M-1556.3-675.1h-23.5c-8.8,0-15.9,7.1-15.9,15.9c0,8.8,7.1,15.9,15.9,15.9C-1564-643.2-1558.3-661.5-1556.3-675.1z"/>
				<path class="st0" d="M-1451-737.5v26.4h-34.6v94.3h-26v-120.7H-1451z"/>
				<path class="st0" d="M-1337.3-774.5v155.6h-26v-4.3c-8.3,4.9-17.8,7.8-27.9,7.8c-31.3,0-56.8-27-56.8-60.2
					c0-33.2,25.5-60.2,56.8-60.2c10.1,0,19.6,2.8,27.9,7.7v-46.4H-1337.3z M-1363.3-675.8c0,0,0-0.1,0-0.1c0-0.8,0-1.8-0.1-2.7
					c0-0.5-0.1-0.9-0.1-1.4c0-0.3-0.1-0.6-0.1-0.9c-0.4-3.1-1.2-6.1-2.3-8.9c-2.9-7.8-8.6-15.6-18.6-18.6c-2.1-0.7-4.3-1.1-6.5-1.2
					c-0.1,0-0.1,0-0.2,0c-0.1,0-0.2,0-0.2,0c-0.4,0-0.7-0.1-1.1-0.1c-0.3,0-0.5,0-0.8,0c-0.7,0-1.4,0.1-2.1,0.1c-0.1,0-0.1,0-0.2,0
					c-3.9,0.4-7.5,1.8-10.8,3.9c0,0-0.1,0.1-0.1,0.1c-0.7,0.5-1.4,0.9-2.1,1.4c-0.5,0.4-1,0.9-1.5,1.3c-0.2,0.2-0.4,0.3-0.5,0.5
					c-6.7,6.2-11.1,15.8-11.1,26.6c0,0,0,0,0,0c0,0,0,0,0,0c0,0,0,0.1,0,0.1c0,18,12.1,32.7,27.4,33.8c0,0,0,0,0,0
					c0.6,0,1.2,0.1,1.8,0.1c0.2,0,0.4,0,0.6,0c0.2,0,0.5,0,0.7,0c0.5,0,1.1-0.1,1.6-0.2c0,0,0.1,0,0.1,0c5.6-0.5,10.2-2.9,13.9-6.2
					c7.4-6.2,12.2-16.2,12.2-27.6C-1363.3-675.7-1363.3-675.8-1363.3-675.8z"/>
			</g>
		</g>
		<g>
			<g>
				<g>
					<path class="st0" d="M-2089.4-770.4h-36.3c-3.4,0-6.1-2.7-6.1-6.1v-39.3h-85.3v39.3c0,29,13.6,55,34.8,71.7h-34.8v85.3h36.3
						c3.4,0,6.1,2.7,6.1,6.1v39.3h85.3v-39.3c0-29.1-13.6-55-34.8-71.7h34.8V-770.4z M-2112.9-597.6h-38.3v-15.8
						c0-16.3-13.3-29.6-29.6-29.6h-12.8v-38.3h12.8c37.4,0,67.9,30.5,67.9,67.9V-597.6z M-2112.9-708.6h-12.8
						c-37.4,0-67.9-30.5-67.9-67.9v-15.8h38.3v15.8c0,16.3,13.3,29.6,29.6,29.6h12.8V-708.6z"/>
				</g>
			</g>
		</g>
	</g>
</g>
<g>
	<g>
		<g>
			<g>
				<path class="st1" d="M-1083.5-642.6v26.2h-10.4c-18.7,0-33.8-15.2-33.8-33.8v-112h26.2v31.8h17.2v26.2h-17.2v54
					c0,4.2,3.4,7.6,7.6,7.6H-1083.5z"/>
				<path class="st1" d="M-1050.1-667.8c3.1,15.3,15.5,26.7,30.2,26.7c11,0,20.7-6.4,26.2-16.1h27.3c-7.3,23.9-28.5,41.2-53.5,41.2
					c-31,0-56.2-26.7-56.2-59.7c0-32.9,25.2-59.7,56.2-59.7c24.9,0,46.1,17.3,53.5,41.2c1.8,5.8,2.8,12,2.8,18.4
					c0,2.7-0.2,5.2-0.5,7.8H-1050.1z M-993.7-694c-5.4-9.7-15.1-16.1-26.2-16.1c-11.1,0-20.8,6.4-26.2,16.1H-993.7z"/>
				<path class="st1" d="M-839.3-736.9v60.4c0,33.2-25.5,60.2-56.8,60.2c-31.3,0-56.8-27-56.8-60.2v-60.2h26.2v60.2
					c0,18.7,13.7,34,30.5,34c16.8,0,30.5-15.2,30.5-34v-60.4H-839.3z"/>
				<path class="st1" d="M-743.3-662.1h27.3c-5.6,26.9-28.3,47.1-55.4,47.1c-31.3,0-56.8-27-56.8-60.2c0-33.2,25.5-60.2,56.8-60.2
					c27.1,0,49.8,20.2,55.4,47.1h-27.3c-4.6-12.2-15.5-20.9-28.2-20.9c-16.8,0-30.5,15.3-30.5,34c0,18.7,13.7,33.9,30.5,33.9
					C-758.9-641.3-748-649.9-743.3-662.1z"/>
				<path class="st1" d="M-616.7-703.6v84.8h-26.2v-5c-9.7,6.3-19.3,7.2-24,7.2c-23.2,0-42.2-18.9-42.2-42.2
					c0-23.2,18.9-42.2,42.2-42.2h24v-2.6c0-4-3.3-7.3-7.3-7.3H-667v-26.2h16.7C-631.7-737.1-616.7-722.1-616.7-703.6z M-643.5-674.7
					H-667c-8.8,0-15.9,7.1-15.9,15.9c0,8.8,7.1,15.9,15.9,15.9C-651.2-642.9-645.5-661.1-643.5-674.7z"/>
				<path class="st1" d="M-538.2-737.1v26.4h-34.6v94.3h-26v-120.7H-538.2z"/>
				<path class="st1" d="M-424.5-774.2v155.6h-26v-4.3c-8.3,4.9-17.8,7.8-27.9,7.8c-31.3,0-56.8-27-56.8-60.2
					c0-33.2,25.5-60.2,56.8-60.2c10.1,0,19.6,2.8,27.9,7.7v-46.4H-424.5z M-450.5-675.5c0,0,0-0.1,0-0.1c0-0.8,0-1.8-0.1-2.7
					c0-0.5-0.1-0.9-0.1-1.4c0-0.3-0.1-0.6-0.1-0.9c-0.4-3.1-1.2-6.1-2.3-8.9c-2.9-7.8-8.6-15.6-18.6-18.6c-2.1-0.7-4.3-1.1-6.5-1.2
					c-0.1,0-0.1,0-0.2,0c-0.1,0-0.2,0-0.2,0c-0.4,0-0.7-0.1-1.1-0.1c-0.3,0-0.5,0-0.8,0c-0.7,0-1.4,0.1-2.1,0.1c-0.1,0-0.1,0-0.2,0
					c-3.9,0.4-7.5,1.8-10.8,3.9c0,0-0.1,0.1-0.1,0.1c-0.7,0.5-1.4,0.9-2.1,1.4c-0.5,0.4-1,0.9-1.5,1.3c-0.2,0.2-0.4,0.3-0.5,0.5
					c-6.7,6.2-11.1,15.8-11.1,26.6c0,0,0,0,0,0c0,0,0,0,0,0c0,0,0,0.1,0,0.1c0,18,12.1,32.7,27.4,33.8c0,0,0,0,0,0
					c0.6,0,1.2,0.1,1.8,0.1c0.2,0,0.4,0,0.6,0c0.2,0,0.5,0,0.7,0c0.5,0,1.1-0.1,1.6-0.2c0,0,0.1,0,0.1,0c5.6-0.5,10.2-2.9,13.9-6.2
					c7.4-6.2,12.2-16.2,12.2-27.6C-450.5-675.4-450.5-675.4-450.5-675.5z"/>
			</g>
		</g>
		<g>
			<g>
				<g>
					<path class="st0" d="M-1176.6-770.1h-36.3c-3.4,0-6.1-2.7-6.1-6.1v-39.3h-85.3v39.3c0,29,13.6,55,34.8,71.7h-34.8v85.3h36.3
						c3.4,0,6.1,2.7,6.1,6.1v39.3h85.3V-613c0-29.1-13.6-55-34.8-71.7h34.8V-770.1z M-1200.1-597.3h-38.3V-613
						c0-16.3-13.3-29.6-29.6-29.6h-12.8V-681h12.8c37.4,0,67.9,30.5,67.9,67.9V-597.3z M-1200.1-708.3h-12.8
						c-37.4,0-67.9-30.5-67.9-67.9V-792h38.3v15.8c0,16.3,13.3,29.6,29.6,29.6h12.8V-708.3z"/>
				</g>
			</g>
		</g>
	</g>
</g>
<g>
	<g>
		<g>
			<path class="st2" d="M-170.7-642.6v26.2h-10.4c-18.7,0-33.8-15.2-33.8-33.8v-112h26.2v31.8h17.2v26.2h-17.2v54
				c0,4.2,3.4,7.6,7.6,7.6H-170.7z"/>
			<path class="st2" d="M-137.3-667.8c3.1,15.3,15.5,26.7,30.2,26.7c11,0,20.7-6.4,26.2-16.1h27.3c-7.3,23.9-28.5,41.2-53.5,41.2
				c-31,0-56.2-26.7-56.2-59.7c0-32.9,25.2-59.7,56.2-59.7c24.9,0,46.1,17.3,53.5,41.2c1.8,5.8,2.8,12,2.8,18.4
				c0,2.7-0.2,5.2-0.5,7.8H-137.3z M-80.9-694c-5.4-9.7-15.1-16.1-26.2-16.1c-11.1,0-20.8,6.4-26.2,16.1H-80.9z"/>
			<path class="st2" d="M73.5-736.9v60.4c0,33.2-25.5,60.2-56.8,60.2c-31.3,0-56.8-27-56.8-60.2v-60.2h26.2v60.2
				c0,18.7,13.7,34,30.5,34c16.8,0,30.5-15.2,30.5-34v-60.4H73.5z"/>
			<path class="st2" d="M169.5-662.1h27.3c-5.6,26.9-28.3,47.1-55.4,47.1c-31.3,0-56.8-27-56.8-60.2c0-33.2,25.5-60.2,56.8-60.2
				c27.1,0,49.8,20.2,55.4,47.1h-27.3c-4.6-12.2-15.5-20.9-28.2-20.9c-16.8,0-30.5,15.3-30.5,34c0,18.7,13.7,33.9,30.5,33.9
				C153.9-641.3,164.8-649.9,169.5-662.1z"/>
			<path class="st2" d="M296.1-703.6v84.8h-26.2v-5c-9.7,6.3-19.3,7.2-24,7.2c-23.2,0-42.2-18.9-42.2-42.2
				c0-23.2,18.9-42.2,42.2-42.2h24v-2.6c0-4-3.3-7.3-7.3-7.3h-16.7v-26.2h16.7C281.1-737.1,296.1-722.1,296.1-703.6z M269.3-674.7
				h-23.5c-8.8,0-15.9,7.1-15.9,15.9c0,8.8,7.1,15.9,15.9,15.9C261.6-642.9,267.3-661.1,269.3-674.7z"/>
			<path class="st2" d="M374.6-737.1v26.4h-34.6v94.3h-26v-120.7H374.6z"/>
			<path class="st2" d="M488.3-774.2v155.6h-26v-4.3c-8.3,4.9-17.8,7.8-27.9,7.8c-31.3,0-56.8-27-56.8-60.2
				c0-33.2,25.5-60.2,56.8-60.2c10.1,0,19.6,2.8,27.9,7.7v-46.4H488.3z M462.3-675.5c0,0,0-0.1,0-0.1c0-0.8,0-1.8-0.1-2.7
				c0-0.5-0.1-0.9-0.1-1.4c0-0.3-0.1-0.6-0.1-0.9c-0.4-3.1-1.2-6.1-2.3-8.9c-2.9-7.8-8.6-15.6-18.6-18.6c-2.1-0.7-4.3-1.1-6.5-1.2
				c-0.1,0-0.1,0-0.2,0c-0.1,0-0.2,0-0.2,0c-0.4,0-0.7-0.1-1.1-0.1c-0.3,0-0.5,0-0.8,0c-0.7,0-1.4,0.1-2.1,0.1c-0.1,0-0.1,0-0.2,0
				c-3.9,0.4-7.5,1.8-10.8,3.9c0,0-0.1,0.1-0.1,0.1c-0.7,0.5-1.4,0.9-2.1,1.4c-0.5,0.4-1,0.9-1.5,1.3c-0.2,0.2-0.4,0.3-0.5,0.5
				c-6.7,6.2-11.1,15.8-11.1,26.6c0,0,0,0,0,0c0,0,0,0,0,0c0,0,0,0.1,0,0.1c0,18,12.1,32.7,27.4,33.8c0,0,0,0,0,0
				c0.6,0,1.2,0.1,1.8,0.1c0.2,0,0.4,0,0.6,0c0.2,0,0.5,0,0.7,0c0.5,0,1.1-0.1,1.6-0.2c0,0,0.1,0,0.1,0c5.6-0.5,10.2-2.9,13.9-6.2
				c7.4-6.2,12.2-16.2,12.2-27.6C462.3-675.4,462.3-675.4,462.3-675.5z"/>
		</g>
		<g>
			<g>
				<g>
					<path class="st0" d="M-263.8-770.1h-36.3c-3.4,0-6.1-2.7-6.1-6.1v-39.3h-85.3v39.3c0,29,13.6,55,34.8,71.7h-34.8v85.3h36.3
						c3.4,0,6.1,2.7,6.1,6.1v39.3h85.3V-613c0-29.1-13.6-55-34.8-71.7h34.8V-770.1z M-287.3-597.3h-38.3V-613
						c0-16.3-13.3-29.6-29.6-29.6H-368V-681h12.8c37.4,0,67.9,30.5,67.9,67.9V-597.3z M-287.3-708.3h-12.8
						c-37.4,0-67.9-30.5-67.9-67.9V-792h38.3v15.8c0,16.3,13.3,29.6,29.6,29.6h12.8V-708.3z"/>
				</g>
			</g>
		</g>
	</g>
</g>
<g>
	<g>
		<path d="M742.1-642.6v26.2h-10.4c-18.7,0-33.8-15.2-33.8-33.8v-112h26.2v31.8h17.2v26.2h-17.2v54c0,4.2,3.4,7.6,7.6,7.6H742.1z"/>
		<path d="M775.5-667.8c3.1,15.3,15.5,26.7,30.2,26.7c11,0,20.7-6.4,26.2-16.1h27.3c-7.3,23.9-28.5,41.2-53.5,41.2
			c-31,0-56.2-26.7-56.2-59.7c0-32.9,25.2-59.7,56.2-59.7c24.9,0,46.1,17.3,53.5,41.2c1.8,5.8,2.8,12,2.8,18.4
			c0,2.7-0.2,5.2-0.5,7.8H775.5z M831.9-694c-5.4-9.7-15.1-16.1-26.2-16.1c-11.1,0-20.8,6.4-26.2,16.1H831.9z"/>
		<path d="M986.3-736.9v60.4c0,33.2-25.5,60.2-56.8,60.2c-31.3,0-56.8-27-56.8-60.2v-60.2H899v60.2c0,18.7,13.7,34,30.5,34
			c16.8,0,30.5-15.2,30.5-34v-60.4H986.3z"/>
		<path d="M1082.3-662.1h27.3c-5.6,26.9-28.3,47.1-55.4,47.1c-31.3,0-56.8-27-56.8-60.2c0-33.2,25.5-60.2,56.8-60.2
			c27.1,0,49.8,20.2,55.4,47.1h-27.3c-4.6-12.2-15.5-20.9-28.2-20.9c-16.8,0-30.5,15.3-30.5,34c0,18.7,13.7,33.9,30.5,33.9
			C1066.7-641.3,1077.6-649.9,1082.3-662.1z"/>
		<path d="M1208.9-703.6v84.8h-26.2v-5c-9.7,6.3-19.3,7.2-24,7.2c-23.2,0-42.2-18.9-42.2-42.2c0-23.2,18.9-42.2,42.2-42.2h24v-2.6
			c0-4-3.3-7.3-7.3-7.3h-16.7v-26.2h16.7C1193.9-737.1,1208.9-722.1,1208.9-703.6z M1182.1-674.7h-23.5c-8.8,0-15.9,7.1-15.9,15.9
			c0,8.8,7.1,15.9,15.9,15.9C1174.4-642.9,1180.1-661.1,1182.1-674.7z"/>
		<path d="M1287.4-737.1v26.4h-34.6v94.3h-26v-120.7H1287.4z"/>
		<path d="M1401.1-774.2v155.6h-26v-4.3c-8.3,4.9-17.8,7.8-27.9,7.8c-31.3,0-56.8-27-56.8-60.2c0-33.2,25.5-60.2,56.8-60.2
			c10.1,0,19.6,2.8,27.9,7.7v-46.4H1401.1z M1375.1-675.5c0,0,0-0.1,0-0.1c0-0.8,0-1.8-0.1-2.7c0-0.5-0.1-0.9-0.1-1.4
			c0-0.3-0.1-0.6-0.1-0.9c-0.4-3.1-1.2-6.1-2.3-8.9c-2.9-7.8-8.6-15.6-18.6-18.6c-2.1-0.7-4.3-1.1-6.5-1.2c-0.1,0-0.1,0-0.2,0
			c-0.1,0-0.2,0-0.2,0c-0.4,0-0.7-0.1-1.1-0.1c-0.3,0-0.5,0-0.8,0c-0.7,0-1.4,0.1-2.1,0.1c-0.1,0-0.1,0-0.2,0
			c-3.9,0.4-7.5,1.8-10.8,3.9c0,0-0.1,0.1-0.1,0.1c-0.7,0.5-1.4,0.9-2.1,1.4c-0.5,0.4-1,0.9-1.5,1.3c-0.2,0.2-0.4,0.3-0.5,0.5
			c-6.7,6.2-11.1,15.8-11.1,26.6c0,0,0,0,0,0c0,0,0,0,0,0c0,0,0,0.1,0,0.1c0,18,12.1,32.7,27.4,33.8c0,0,0,0,0,0
			c0.6,0,1.2,0.1,1.8,0.1c0.2,0,0.4,0,0.6,0c0.2,0,0.5,0,0.7,0c0.5,0,1.1-0.1,1.6-0.2c0,0,0.1,0,0.1,0c5.6-0.5,10.2-2.9,13.9-6.2
			c7.4-6.2,12.2-16.2,12.2-27.6C1375.1-675.4,1375.1-675.4,1375.1-675.5z"/>
	</g>
	<g>
		<g>
			<g>
				<path d="M649-770.1h-36.3c-3.4,0-6.1-2.7-6.1-6.1v-39.3h-85.3v39.3c0,29,13.6,55,34.8,71.7h-34.8v85.3h36.3
					c3.4,0,6.1,2.7,6.1,6.1v39.3H649V-613c0-29.1-13.6-55-34.8-71.7H649V-770.1z M625.5-597.3h-38.3V-613
					c0-16.3-13.3-29.6-29.6-29.6h-12.8V-681h12.8c37.4,0,67.9,30.5,67.9,67.9V-597.3z M625.5-708.3h-12.8
					c-37.4,0-67.9-30.5-67.9-67.9V-792h38.3v15.8c0,16.3,13.3,29.6,29.6,29.6h12.8V-708.3z"/>
			</g>
		</g>
	</g>
</g>
<g>
	<g>
		<path class="st3" d="M1654.9-642.6v26.2h-10.4c-18.7,0-33.8-15.2-33.8-33.8v-112h26.2v31.8h17.2v26.2h-17.2v54
			c0,4.2,3.4,7.6,7.6,7.6H1654.9z"/>
		<path class="st3" d="M1688.3-667.8c3.1,15.3,15.5,26.7,30.2,26.7c11,0,20.7-6.4,26.2-16.1h27.3c-7.3,23.9-28.5,41.2-53.5,41.2
			c-31,0-56.2-26.7-56.2-59.7c0-32.9,25.2-59.7,56.2-59.7c24.9,0,46.1,17.3,53.5,41.2c1.8,5.8,2.8,12,2.8,18.4
			c0,2.7-0.2,5.2-0.5,7.8H1688.3z M1744.7-694c-5.4-9.7-15.1-16.1-26.2-16.1c-11.1,0-20.8,6.4-26.2,16.1H1744.7z"/>
		<path class="st3" d="M1899.1-736.9v60.4c0,33.2-25.5,60.2-56.8,60.2c-31.3,0-56.8-27-56.8-60.2v-60.2h26.2v60.2
			c0,18.7,13.7,34,30.5,34c16.8,0,30.5-15.2,30.5-34v-60.4H1899.1z"/>
		<path class="st3" d="M1995.1-662.1h27.3c-5.6,26.9-28.3,47.1-55.4,47.1c-31.3,0-56.8-27-56.8-60.2c0-33.2,25.5-60.2,56.8-60.2
			c27.1,0,49.8,20.2,55.4,47.1h-27.3c-4.6-12.2-15.5-20.9-28.2-20.9c-16.8,0-30.5,15.3-30.5,34c0,18.7,13.7,33.9,30.5,33.9
			C1979.5-641.3,1990.4-649.9,1995.1-662.1z"/>
		<path class="st3" d="M2121.7-703.6v84.8h-26.2v-5c-9.7,6.3-19.3,7.2-24,7.2c-23.2,0-42.2-18.9-42.2-42.2
			c0-23.2,18.9-42.2,42.2-42.2h24v-2.6c0-4-3.3-7.3-7.3-7.3h-16.7v-26.2h16.7C2106.7-737.1,2121.7-722.1,2121.7-703.6z
			 M2094.9-674.7h-23.5c-8.8,0-15.9,7.1-15.9,15.9c0,8.8,7.1,15.9,15.9,15.9C2087.2-642.9,2092.9-661.1,2094.9-674.7z"/>
		<path class="st3" d="M2200.2-737.1v26.4h-34.6v94.3h-26v-120.7H2200.2z"/>
		<path class="st3" d="M2313.9-774.2v155.6h-26v-4.3c-8.3,4.9-17.8,7.8-27.9,7.8c-31.3,0-56.8-27-56.8-60.2
			c0-33.2,25.5-60.2,56.8-60.2c10.1,0,19.6,2.8,27.9,7.7v-46.4H2313.9z M2287.9-675.5c0,0,0-0.1,0-0.1c0-0.8,0-1.8-0.1-2.7
			c0-0.5-0.1-0.9-0.1-1.4c0-0.3-0.1-0.6-0.1-0.9c-0.4-3.1-1.2-6.1-2.3-8.9c-2.9-7.8-8.6-15.6-18.6-18.6c-2.1-0.7-4.3-1.1-6.5-1.2
			c-0.1,0-0.1,0-0.2,0c-0.1,0-0.2,0-0.2,0c-0.4,0-0.7-0.1-1.1-0.1c-0.3,0-0.5,0-0.8,0c-0.7,0-1.4,0.1-2.1,0.1c-0.1,0-0.1,0-0.2,0
			c-3.9,0.4-7.5,1.8-10.8,3.9c0,0-0.1,0.1-0.1,0.1c-0.7,0.5-1.4,0.9-2.1,1.4c-0.5,0.4-1,0.9-1.5,1.3c-0.2,0.2-0.4,0.3-0.5,0.5
			c-6.7,6.2-11.1,15.8-11.1,26.6c0,0,0,0,0,0c0,0,0,0,0,0c0,0,0,0.1,0,0.1c0,18,12.1,32.7,27.4,33.8c0,0,0,0,0,0
			c0.6,0,1.2,0.1,1.8,0.1c0.2,0,0.4,0,0.6,0c0.2,0,0.5,0,0.7,0c0.5,0,1.1-0.1,1.6-0.2c0,0,0.1,0,0.1,0c5.6-0.5,10.2-2.9,13.9-6.2
			c7.4-6.2,12.2-16.2,12.2-27.6C2287.9-675.4,2287.9-675.4,2287.9-675.5z"/>
	</g>
	<g>
		<g>
			<g>
				<path class="st3" d="M1561.8-770.1h-36.3c-3.4,0-6.1-2.7-6.1-6.1v-39.3h-85.3v39.3c0,29,13.6,55,34.8,71.7h-34.8v85.3h36.3
					c3.4,0,6.1,2.7,6.1,6.1v39.3h85.3V-613c0-29.1-13.6-55-34.8-71.7h34.8V-770.1z M1538.3-597.3H1500V-613
					c0-16.3-13.3-29.6-29.6-29.6h-12.8V-681h12.8c37.4,0,67.9,30.5,67.9,67.9V-597.3z M1538.3-708.3h-12.8
					c-37.4,0-67.9-30.5-67.9-67.9V-792h38.3v15.8c0,16.3,13.3,29.6,29.6,29.6h12.8V-708.3z"/>
			</g>
		</g>
	</g>
</g>
<g>
	<g>
		<g>
			<path class="st0" d="M-1555.9,163.3h-125.2c-11.6,0-21-9.5-21-21.1V6.8h-294.2v135.4c0,100.1,47,189.5,120,247.3h-120v294.1
				h125.2c11.6,0,21,9.5,21,21.1V840h294.2V704.7c0-100.2-47-189.6-120-247.3h120V163.3z M-1637,759H-1769v-54.3
				c0-56.3-45.8-102.1-102-102.1h-44.1v-132h44.1c129.1,0,234.1,105,234.1,234.1V759z M-1637,376.3h-44.1
				c-129.1,0-234.1-105-234.1-234.1V87.9h132.1v54.3c0,56.3,45.7,102.1,102,102.1h44.1V376.3z"/>
		</g>
	</g>
</g>
<g>
	<g>
		<path class="st2" d="M-1051.3,163.3h-125.2c-11.6,0-21-9.5-21-21.1V6.8h-294.2v135.4c0,100.1,47,189.5,120,247.3h-120v294.1h125.2
			c11.6,0,21,9.5,21,21.1V840h294.2V704.7c0-100.2-47-189.6-120-247.3h120V163.3z M-1132.4,759h-132.1v-54.3
			c0-56.3-45.8-102.1-102-102.1h-44.1v-132h44.1c129.1,0,234.1,105,234.1,234.1V759z M-1132.4,376.3h-44.1
			c-129.1,0-234.1-105-234.1-234.1V87.9h132.1v54.3c0,56.3,45.7,102.1,102,102.1h44.1V376.3z"/>
	</g>
</g>
<g>
	<g>
		<g>
			<path class="st1" d="M-546.7,163.3h-125.2c-11.6,0-21-9.5-21-21.1V6.8H-987v135.4c0,100.1,47,189.5,120,247.3h-120v294.1h125.2
				c11.6,0,21,9.5,21,21.1V840h294.2V704.7c0-100.2-47-189.6-120-247.3h120V163.3z M-627.8,759h-132.1v-54.3
				c0-56.3-45.8-102.1-102-102.1H-906v-132h44.1c129.1,0,234.1,105,234.1,234.1V759z M-627.8,376.3h-44.1
				c-129.1,0-234.1-105-234.1-234.1V87.9h132.1v54.3c0,56.3,45.7,102.1,102,102.1h44.1V376.3z"/>
		</g>
	</g>
</g>
<g>
	<g>
		<g>
			<path d="M-42.1,163.3h-125.2c-11.6,0-21-9.5-21-21.1V6.8h-294.2v135.4c0,100.1,47,189.5,120,247.3h-120v294.1h125.2
				c11.6,0,21,9.5,21,21.1V840h294.2V704.7c0-100.2-47-189.6-120-247.3h120V163.3z M-123.2,759h-132.1v-54.3
				c0-56.3-45.8-102.1-102-102.1h-44.1v-132h44.1c129.1,0,234.1,105,234.1,234.1V759z M-123.2,376.3h-44.1
				c-129.1,0-234.1-105-234.1-234.1V87.9h132.1v54.3c0,56.3,45.7,102.1,102,102.1h44.1V376.3z"/>
		</g>
	</g>
</g>
<g>
	<g>
		<g>
			<path class="st3" d="M462.5,163.3H337.3c-11.6,0-21-9.5-21-21.1V6.8H22.1v135.4c0,100.1,47,189.5,120,247.3h-120v294.1h125.2
				c11.6,0,21,9.5,21,21.1V840h294.2V704.7c0-100.2-47-189.6-120-247.3h120V163.3z M381.4,759H249.3v-54.3
				c0-56.3-45.8-102.1-102-102.1h-44.1v-132h44.1c129.1,0,234.1,105,234.1,234.1V759z M381.4,376.3h-44.1
				c-129.1,0-234.1-105-234.1-234.1V87.9h132.1v54.3c0,56.3,45.7,102.1,102,102.1h44.1V376.3z"/>
		</g>
	</g>
</g>
</svg>
